<svg xmlns="http://www.w3.org/2000/svg" width="24" height="24" fill="none" viewBox="0 0 24 24">
  <path stroke="currentColor" stroke-linecap="round" stroke-width="2" d="M4.527 12.074c-.171 0-.51 1.271-2.396-.578-1.885-1.85 4.206-6.894 3.593-4.24-.613 2.654-1.026 4.818-1.197 4.818ZM14.768 22.5l1.676-.785.55-2.355 4.386-4.121-1.47-2.552 2.756-4.318-.735-2.355L22.768 2m-6 8.5v-4"/>
  <path fill="currentColor" d="M15.852 7.082c-.178-.417-.051-.973.178-1.462.229-.488 2.64.586 3.738 1.88 0 0-3.738 0-3.916-.418Z"/>
  <path stroke="currentColor" stroke-linecap="round" stroke-width="2" d="M13.321 20.5c-.574-7.6-5.553-7.2-5.553-9 0-1.8 0-5 2.106-5s2.362 2 3.255 2.4c.894.4 1.341.6 3.639.6m-14 13c3.567-2.519 5-6.737 5-8"/>
  <circle cx="11.268" cy="2.75" r="1.5" stroke="currentColor" stroke-linecap="round" stroke-width="2"/>
</svg>
