<svg xmlns="http://www.w3.org/2000/svg" width="24" height="25" fill="none" viewBox="0 0 24 25">
  <path stroke="currentColor" stroke-linecap="round" stroke-width="2" d="M3 9.917C4.575 8.785 7.133 6.71 8.51 6.52c1.379-.189 2.78.943 2.953 1.51.173.565-1.353 2.452-1.353 4.15 0 1.698 3.321 3.584 3.715 4.716.394 1.132 0 5.66 0 6.603"/>
  <path stroke="currentColor" stroke-linecap="round" stroke-width="2" d="M8 15.5c-.7.77-1.4 1.692-2.625 2H1m13-10c.182.956 1.273 3.027 1.636 3.504.728.638 2.546.478 4.364.478"/>
  <circle cx="13.5" cy="3" r="1.5" stroke="currentColor" stroke-linecap="round" stroke-width="2"/>
  <path stroke="currentColor" stroke-linecap="round" d="M21.5 6a1 1 0 1 1 0 2 1 1 0 0 1 0-2Z"/>
  <circle cx="19.5" cy="4" r="1.5" fill="currentColor"/>
  <path fill="currentColor" d="M19 7a1.5 1.5 0 1 1-3 0 1.5 1.5 0 0 1 3 0Z"/>
</svg>
