<svg xmlns="http://www.w3.org/2000/svg" width="25" height="24" fill="none" viewBox="0 0 25 24">
  <path stroke="currentColor" stroke-linecap="round" stroke-width="2" d="M6 8.249c4.32-3.695 5.809-1.402 7 0"/>
  <path stroke="currentColor" stroke-linecap="round" stroke-width="2" d="M1 12.248c1.614 0 2.421-.999 3.833-.999 1.413 0 2.177 1 3.834 1 1.656 0 2.177-1 3.833-1 1.656 0 2.177 1.019 3.833 1 1.586-.02 2.047-1.02 3.632-1 1.515.02 2.421 1 4.035 1M1 18.248c1.614 0 2.421-1.999 3.833-1.999 1.413 0 2.177 2 3.834 2 1.656 0 2.177-2 3.833-2 1.656 0 2.177 2.038 3.833 2 1.586-.038 2.047-2.04 3.632-2 1.515.04 2.421 2 4.035 2"/>
  <circle cx="17.5" cy="4.749" r="1.5" stroke="currentColor" stroke-linecap="round" stroke-width="2"/>
</svg>
