<svg xmlns="http://www.w3.org/2000/svg" width="24" height="24" fill="none" viewBox="0 0 24 24">
  <path stroke="#0B0000" stroke-width="2" d="M19.546 10.653c-4.909 0-3.818-2.522-5.636-2.883-1.818-.36-5.091-.36-5.636 0-.546.36-.728.72-.728 2.343 0 1.621 1.455 1.622 1.818 2.702.364 1.081.182 3.784.182 4.685m2.91-3.063c.605-3.26.363-3.604-1.273-4.505M19.046 3.5a1.5 1.5 0 1 1 0 3 1.5 1.5 0 0 1 0-3Z"/>
  <circle cx="4.768" cy="16.5" r="3" stroke="#000" stroke-width="2"/>
  <circle cx="18.546" cy="16.5" r="3" stroke="#000" stroke-width="2"/>
</svg>
