<svg xmlns="http://www.w3.org/2000/svg" width="24" height="24" fill="none" viewBox="0 0 24 24">
  <path stroke="currentColor" stroke-linecap="round" stroke-width="2" d="M13.761 22.5c-2.214-6.391-7.142-5.29-7.747-6.811-.605-1.522-1.845-4.123.184-4.123 2.03 0 2.214 0 2.767-.359.554-.358 2.214-2.15 3.136-3.405m4.98 6.274c-1.106-.359-2.397-1.076-4.426-.718-.807.3-1.457.928-2.583 1.972M7.305 3.5v3.764c-.12.971-.274 1.449-.738 2.151"/>
  <path stroke="currentColor" stroke-linecap="round" stroke-width="2" d="m10.082 2.5 3.937 1.776 1.875 3.196L20.02 9.78l.188 4.972 1.875 2.664V21.5"/>
  <circle cx="2.582" cy="9" r="1.5" stroke="currentColor" stroke-linecap="round" stroke-width="2"/>
</svg>
