<svg xmlns="http://www.w3.org/2000/svg" width="25" height="24" fill="none" viewBox="0 0 25 24">
  <path stroke="currentColor" stroke-linecap="round" stroke-width="2" d="M6 11.315C7.484 9.833 10.028 6.5 12.572 6.5c2.544 0 2.447.37 2.756 1.296.309.926-2.147 2.037-1.696 3.89.45 1.851 2.756 3.147 3.18 4.258.424 1.112 0 3.89 0 5.556M17 6.944A18.311 18.311 0 0 0 19.882 8.5c1.404 0 2.138-1.102 3.198-2.5"/>
  <path stroke="currentColor" stroke-linecap="round" stroke-width="2" d="M12 14.5s-3.186 4.52-8 6m-3 2h19.58c1.365 0 1.84-1.116 2.5-2M7 9.5l-6-6m19 15 3-13"/>
  <circle cx="17.5" cy="3" r="1.5" stroke="currentColor" stroke-linecap="round" stroke-width="2"/>
</svg>
