<svg xmlns="http://www.w3.org/2000/svg" width="24" height="24" fill="none" viewBox="0 0 24 24">
  <path stroke="#0B0000" stroke-width="2" d="M4 8.515c1.431-.999 3.757-2.83 5.01-2.997 1.252-.166 2.527.833 2.684 1.332.156.5-1.23 2.164-1.23 3.662 0 1.498 3.02 3.163 3.377 4.162.358.999 0 4.994 0 5.826"/>
  <path stroke="#0B0000" stroke-width="2" d="M9 12.5c-.7.77-1.4 1.692-2.625 2H2m12-8c0 .985 1.051 2.983 1.8 3.598.749.615 2.327.341 4.2.341"/>
  <circle cx="14.5" cy="3" r="1.5" stroke="#0B0000" stroke-width="2"/>
  <path stroke="#000" stroke-width="2" d="m12 22.5 5.49-1.452.89-1.935L23 17.5"/>
</svg>
