<svg xmlns="http://www.w3.org/2000/svg" width="25" height="24" fill="none" viewBox="0 0 25 24">
  <path stroke="#0B0000" stroke-width="2" d="M5.707 11.315C7.191 9.833 9.735 6.5 12.28 6.5c2.544 0 2.447.37 2.756 1.296.309.926-2.147 2.037-1.696 3.89.45 1.851 2.756 3.147 3.18 4.258.424 1.112 0 3.89 0 5.556m.187-14.556A18.311 18.311 0 0 0 19.59 8.5c1.403 0 2.137-1.102 3.198-2.5"/>
  <path stroke="#0B0000" stroke-width="2" d="M11.707 14.5s-3.186 4.52-8 6m-3 2h19.58c1.365 0 1.84-1.116 2.5-2m-16.08-11-6-6m19 15 3-13"/>
  <circle cx="17.207" cy="3" r="1.5" stroke="#0B0000" stroke-width="2"/>
</svg>
