<svg xmlns="http://www.w3.org/2000/svg" width="24" height="26" fill="none" viewBox="0 0 24 26">
  <path stroke="currentColor" stroke-linecap="round" stroke-width="2" d="M18.768 24.031V8.984M4.107 12.456c2.155 1.852 3.323.772 3.519.772.196 0 .978-4.244 2.737-7.138 1.76-2.894-1.885-4.679-3.128-3.859-1.8 1.187-4.403 9.13-3.128 10.225Zm12.315 11.575c-.395-9.68-5.506-9.68-5.506-11.495 0-1.816.815-6.051 2.963-5.446 2.148.605 2.148 2.219 2.938 2.824s1.58.605 3.95.605m-16 12.497c4.347-3.026 5.137-4.833 5.532-6.85"/>
  <circle cx="15.268" cy="3.016" r="1.5" stroke="currentColor" stroke-linecap="round" stroke-width="2"/>
</svg>
