<svg xmlns="http://www.w3.org/2000/svg" width="24" height="24" fill="none" viewBox="0 0 24 24">
  <path stroke="#0B0000" stroke-width="2" d="M16.777 19.399c-.008-1.415.391-1.786 1.072-2.481 1.087-.512 1.698-.601 2.785 0l1.634 2.582-3.5 2.5-1.99-2.601Zm-10-15.108c.614-.533 1.09-.906 1.536-1.174.546-.327 1.049-.496 1.706-.605 1.195-.197 3.605 1.977 3.755 2.57.149.593-4.437 2.767-4.437 4.546 0 1.78 1.877 2.175 2.218 3.36.341 1.187.341 6.523.341 7.512m-4.119-9c-.437 1.6-.437 2.4-1.312 4.2L.777 19.5m16-12c-.5 1.548-1 2.903-1 2.903V13.5m-7-10 9 13"/>
  <circle cx="17.768" cy="3.5" r="2" stroke="#0B0000" stroke-width="2"/>
</svg>
