<svg xmlns="http://www.w3.org/2000/svg" width="25" height="24" fill="none" viewBox="0 0 25 24">
  <path stroke="currentColor" stroke-linecap="round" stroke-width="2" d="M17 19.399c-.008-1.415.391-1.786 1.072-2.481 1.087-.512 1.698-.601 2.785 0l1.634 2.582-3.5 2.5L17 19.399ZM7 4.291c.614-.533 1.09-.906 1.536-1.174.546-.327 1.049-.496 1.706-.605 1.195-.197 3.605 1.977 3.754 2.57.15.593-4.436 2.767-4.436 4.546 0 1.78 1.877 2.175 2.218 3.36.341 1.187.341 6.523.341 7.512M8 11.5c-.437 1.6-.437 2.4-1.312 4.2L1 19.5m16-12c-.5 1.548-1 2.903-1 2.903V13.5m-7-10 9 13"/>
  <circle cx="17.991" cy="3.5" r="2" stroke="currentColor" stroke-linecap="round" stroke-width="2"/>
</svg>
