<svg xmlns="http://www.w3.org/2000/svg" width="25" height="24" fill="none" viewBox="0 0 25 24">
  <path stroke="currentColor" stroke-linecap="round" stroke-width="2" d="M4.448 3.25h6.94c2.38 0 2.38 2.458 2.38 2.458-.199 1.843-3.396 2.867-2.975 4.915.421 2.049 2.181 2.254 2.578 3.482.396 1.23.198 4.302.198 6.145M15.75 7.142c.793.819 1 1.101 2.181 2.457.793.41 3.966.41 5.552.41M2.268 14.515c2.18 0 2.624.333 3.767 0 1.784-1.229 1.784-1.639 2.775-2.663"/>
  <circle cx="17.983" cy="2.75" r="1.5" stroke="currentColor" stroke-linecap="round" stroke-width="2"/>
  <path fill="currentColor" stroke="currentColor" stroke-linecap="round" stroke-width="2" d="M2.178 15.267 2.176 13.5h-.408v.68l.002.68.408.407Zm12.362 5.257-1.767-.024-.005.408.68.009.679.009.413-.402Z"/>
</svg>
