<svg xmlns="http://www.w3.org/2000/svg" width="24" height="24" fill="none" viewBox="0 0 24 24">
  <path stroke="#0B0000" stroke-width="2" d="M4.167 18.338c1.446-1.324 1.434-.722 2.53-.567 0 1.135.36 1.135-.542 2.08l-2.53 2.46c-1.264.756-2.348-.946-1.625-1.703l2.167-2.27ZM18.304 4.884s-.906 1.34-.363 2.487c1.63.383 1.812-.191 2.174-.382 1.63-1.53 1.811-1.722 2.535-2.487.544-.957-.905-2.678-2.173-1.722l-2.173 2.104Zm-3.898 5.696c-1.191-.88-3.403-2.053-3.744-2.053-.34 0-.34 2.2-.34 3.813-3.403 0-6.908-.022-7.488.44-.58.46 2.723 1.906 6.127 2.493 3.403.586 7.828-.147 7.828-.147 3.914-.88 5.615-1.613 4.764-2.053 0-1.027-5.105-.734-5.105-.734h-4.084l2.042-1.76Zm0 0L17.98 7.5"/>
  <path stroke="#0B0000" stroke-width="2" d="M9.893 12.5h1.875l-5 5"/>
  <circle cx="10.268" cy="5" r="1.5" stroke="#0B0000" stroke-width="2"/>
</svg>
