<svg xmlns="http://www.w3.org/2000/svg" width="25" height="24" fill="none" viewBox="0 0 25 24">
  <path stroke="#0B0000" stroke-width="2" d="M17.546 6.385s-1.894 1.523-3.457 1.582c-1.19.045-1.58-.896-2.44-1.384-.451-.257-1.22-.489-1.83-.198-.61.29-2.977 2.5-3.254 3.955-.277 1.454 2.643 2.175 3.05 3.362.407 1.186.814 3.56 1.22 4.548m1.83-3.757c0-1.582.26-2.948 0-3.362-.36-.576-1.423-.593-2.236-.593m3.617-9.288a1.5 1.5 0 1 1 0 3 1.5 1.5 0 0 1 0-3Z"/>
  <circle cx="4.546" cy="17.25" r="3" stroke="#000" stroke-width="2"/>
  <circle cx="18.546" cy="13.25" r="3" stroke="#000" stroke-width="2"/>
  <path stroke="#000" stroke-width="2" d="m7.268 23 1.79-1.405h3.477l3.284-2.276 4.443-.207 3.284-1.862"/>
</svg>
