<svg xmlns="http://www.w3.org/2000/svg" width="25" height="25" fill="none" viewBox="0 0 25 25">
  <path stroke="currentColor" stroke-linecap="round" stroke-width="2" d="M9.272 13.645c0-1.778-1.009-5.06 2.421-6.422 3.43-1.363 2.421-.973 2.421.389s-.429 2.919 0 4.865c.429 1.946 3.43 3.503 3.833 4.67.404 1.168 2.22 4.477 2.22 6.228M17.746 6.833c.201 1.557.807 2.53 1.614 3.503 1.21.779 1.21.584 3.228.779M6.044 22.985c4.842-3.697 7.061-7.2 7.061-7.2m-3.228-4.67L1 19.288m21.386 2.14.202-10.313m0 0H24"/>
  <circle cx="16.5" cy="2.875" r="1.5" stroke="currentColor" stroke-linecap="round" stroke-width="2"/>
</svg>
