<svg xmlns="http://www.w3.org/2000/svg" width="24" height="24" fill="none" viewBox="0 0 24 24">
  <path stroke="currentColor" stroke-linecap="round" stroke-width="2" d="M6.23 9.436c1.495-1.074 3.55-2.865 4.857-3.044 1.308-.179 3.2.358 3.363.895.163.538-1.284 2.507-1.284 4.118 0 1.612 2.965 3.044 3.339 4.118.373 1.074.187 3.939.187 4.834m-4.857-5.908c-.748.895-1.495 1.97-2.616 2.865l-3.736 2.148M16.879 7.646c.373 1.074.933 2.506 1.307 3.043.747.716 2.616 1.611 4.297 2.328"/>
  <circle cx="17.768" cy="3.5" r="2" stroke="currentColor" stroke-linecap="round" stroke-width="2"/>
  <circle cx="14.363" cy="22.563" r=".794" fill="currentColor"/>
  <circle cx="16.347" cy="22.563" r=".794" fill="currentColor"/>
  <circle cx="18.332" cy="22.563" r=".794" fill="currentColor"/>
  <circle cx="2.816" cy="18.796" r=".794" fill="currentColor" transform="rotate(56.32 2.816 18.796)"/>
  <circle cx="3.916" cy="20.447" r=".794" fill="currentColor" transform="rotate(56.32 3.916 20.447)"/>
  <circle cx="5.017" cy="22.098" r=".794" fill="currentColor" transform="rotate(56.32 5.017 22.098)"/>
</svg>
