<svg xmlns="http://www.w3.org/2000/svg" width="24" height="24" fill="none" viewBox="0 0 24 24">
  <path stroke="currentColor" stroke-linecap="round" stroke-width="2" d="M7.838 9.017c2.43-3.495 3.925-3.883 6.168-3.883 2.243 0 2.43.97 2.43 1.359 0 .388-1.308 1.747-2.43 2.912-1.121 1.165 2.43 2.525 2.804 3.69.374 1.165.187 3.3.187 5.048M11.95 11.93s-.043 1.819-1.121 3.106M2.044 17.95s6.729 2.913 7.85 3.301M8.586 8.001 1.483 1.25m11.402 16.893h8.598m-10.654-3.107c-1.702 2.031-4.746 4.478-4.86 4.597l4.86-4.597Z"/>
  <circle cx="20.983" cy="3.75" r="1.5" stroke="currentColor" stroke-linecap="round" stroke-width="2"/>
  <circle cx="22.268" cy="18" r="1.5" fill="currentColor"/>
  <circle cx="13.268" cy="18" r="1.5" fill="currentColor"/>
  <circle cx="1.983" cy="17.75" r="1.5" fill="currentColor"/>
  <circle cx="9.268" cy="21" r="1.5" fill="currentColor"/>
</svg>
