<svg xmlns="http://www.w3.org/2000/svg" width="25" height="25" fill="none" viewBox="0 0 25 25">
  <path stroke="currentColor" stroke-linecap="round" stroke-width="2" d="M8.274 11.301c1.376-1.546 3.145-3.48 5.504-3.48 2.359 0 4.128 0 4.128.58s-2.359 2.514-2.948 3.48c-.59.967 2.555 1.16 2.948 2.32.393 1.16-2.613 2.655-3.538 4.395m-10.479 1.02c3.89-2.775 5.77-4.336 7.727-7.155M1 18.261s9.043 4.255 10.223 4.641c1.179.387 2.555 0 3.145-.773M9.65 10.14 1.197 1.054m10.026 15.854s7.47 3.867 9.239 4.447c1.769.58 2.43-.275 2.823-.855"/>
  <circle cx="21.5" cy="5.554" r="1.5" stroke="currentColor" stroke-linecap="round" stroke-width="2"/>
</svg>
