<svg xmlns="http://www.w3.org/2000/svg" width="25" height="24" fill="none" viewBox="0 0 25 24">
  <path stroke="currentColor" stroke-linecap="round" stroke-width="2" d="M6.326 8.918C7.62 7.357 9.69 5.802 11.908 5.802s2.403.975 2.403 1.366c0 .39-1.687 1.756-1.294 3.707.393 1.951 2.773 1.366 3.143 2.537.37 1.17.185 1.756.185 3.512m.184-9.952c.925.586 1.48.976 2.404 1.366 1.11.469 2.19-1.31 3.143-2.536m.74-1.171c-.186.39-.575.958-.74 1.17M5.437 18.095c.185-.195 4.437-4.878 4.437-4.878M1 15.948s9.798 6.244 10.908 6.634c1.109.39 1.848.39 2.773 0M6.844 8.338 1.74 2.875m18.672 12.097 1.664-9.17M10.429 17.704h10.537c1.11 0 1.664-.585 2.034-1.17"/>
  <circle cx="16.849" cy="2.719" r="1.5" stroke="currentColor" stroke-linecap="round" stroke-width="2"/>
</svg>
