<svg xmlns="http://www.w3.org/2000/svg" width="25" height="24" fill="none" viewBox="0 0 25 24">
  <path stroke="#0B0000" stroke-width="2" d="M5.863 8.918c1.294-1.561 3.363-3.116 5.582-3.116 2.218 0 2.403.975 2.403 1.366 0 .39-1.687 1.756-1.294 3.707.393 1.951 2.773 1.366 3.143 2.537.37 1.17.185 1.756.185 3.512m.185-9.952c.924.586 1.479.976 2.403 1.366 1.11.469 2.19-1.31 3.143-2.536m.74-1.171c-.186.39-.575.958-.74 1.17M4.974 18.095c.185-.195 4.437-4.878 4.437-4.878M.537 15.948s9.799 6.244 10.908 6.634c1.11.39 1.849.39 2.773 0M6.38 8.338 1.277 2.875m18.672 12.097 1.664-9.17M9.966 17.704h10.538c1.109 0 1.663-.585 2.033-1.17"/>
  <circle cx="16.386" cy="2.719" r="1.5" stroke="#0B0000" stroke-width="2"/>
</svg>
