<svg xmlns="http://www.w3.org/2000/svg" width="25" height="25" fill="none" viewBox="0 0 25 25">
  <path stroke="#0B0000" stroke-width="2" d="M8.256 11.301c1.376-1.546 3.146-3.48 5.505-3.48s4.128 0 4.128.58-2.36 2.514-2.949 3.48c-.59.967 2.556 1.16 2.949 2.32.393 1.16-2.613 2.655-3.539 4.395m-10.478 1.02c3.889-2.775 5.77-4.336 7.726-7.155m-10.615 5.8s9.043 4.255 10.222 4.641c1.18.387 2.556 0 3.145-.773M9.632 10.14 1.18 1.054m10.026 15.854s7.47 3.867 9.24 4.447c1.769.58 2.43-.275 2.823-.855"/>
  <circle cx="21.483" cy="5.554" r="1.5" stroke="#0B0000" stroke-width="2"/>
</svg>
