<svg xmlns="http://www.w3.org/2000/svg" width="24" height="24" fill="none" viewBox="0 0 24 24">
  <path stroke="currentColor" stroke-linecap="round" stroke-width="2" d="m18.559 16.25.373-8.804m-14.549 5.55c.933.148 2.612.383 2.798.383.187 0 .583-4.338 1.306-6.699.279-.91-1.737-.242-2.798.766-1.69 1.606-2.238 5.403-1.306 5.55Z"/>
  <path stroke="currentColor" stroke-linecap="round" stroke-width="2" d="m3.768 23 17.143-5.083c1.207-.737 1.637-1.333 2.02-2.667"/>
  <path stroke="currentColor" stroke-linecap="round" stroke-width="2" d="M6.932 22.25c2.437-6.542 3.157-7.29 3.157-8.972 0-1.683.557-6.55 2.6-5.982 2.043.567 1.671 1.122 2.971 1.495 1.3.374 2.6-.747 4.272-1.495m-5.015 12.337c.186-5.047.186-5.234-2.762-5.981"/>
  <circle cx="12.432" cy="2.75" r="1.5" stroke="currentColor" stroke-linecap="round" stroke-width="2"/>
  <path fill="currentColor" d="M4.902 5.702c.27-.257.23-.697.065-1.115-.164-.419-2.998-.278-4.431.374 0 0 4.097.999 4.366.741Z"/>
  <path stroke="currentColor" stroke-linecap="round" stroke-width="2" d="m3.932 5.25-1 5"/>
</svg>
