<svg xmlns="http://www.w3.org/2000/svg" width="24" height="24" fill="none" viewBox="0 0 24 24">
  <path stroke="currentColor" stroke-linecap="round" stroke-width="2" d="m18.03 17.25.398-9.685M2.91 13.671c.995.162 2.786.421 2.985.421.199 0 .621-4.772 1.392-7.369.298-1.001-1.852-.267-2.984.842C2.5 9.332 1.916 13.51 2.91 13.671Z"/>
  <path stroke="currentColor" stroke-linecap="round" stroke-width="2" d="m2.768 22.5 17.528-4.25c1.274-.829 1.727-1.499 2.133-3"/>
  <path stroke="currentColor" stroke-linecap="round" stroke-width="2" d="M6.768 21.5c2.437-6.979 2.818-6.026 2.818-7.82 0-1.795.557-6.986 2.6-6.381 2.043.605 1.671 1.196 2.971 1.595s2.6-.798 4.271-1.595M14.768 20c.185-5.383-.168-5.124-3.116-5.922"/>
  <circle cx="11.928" cy="2.75" r="1.5" stroke="currentColor" stroke-linecap="round" stroke-width="2"/>
</svg>
