<svg xmlns="http://www.w3.org/2000/svg" width="24" height="24" fill="none" viewBox="0 0 24 24">
  <path fill="#0B0000" d="m13.572 7.063-.973-.232-.06.251.07.249.963-.268ZM4.817 20.35l-.724.69.02.021.022.02.682-.73ZM17.67 10.19l.759-.652-.76.652ZM3.492 17.51a1 1 0 0 0-1.448 1.38l.724-.69.724-.69Zm3.001 4.403-.682.732.14.13.177.07.365-.932Zm2.086 1.17a1 1 0 1 0-.446-1.95l.223.976.223.975Zm4.62-1.583a1 1 0 1 0 0 2v-2Zm4.47 1 .013-1h-.012v1Zm2.69-.609a1 1 0 0 0-1.652-1.128l.825.564.826.564ZM13.571 7.063c.973.232.973.231.973.23v-.004l.002-.006.003-.014a1.645 1.645 0 0 0 .024-.138 2.319 2.319 0 0 0-.193-1.28c-.402-.845-1.302-1.351-2.67-1.351v2c.448 0 .673.079.77.13.082.043.094.075.097.082a.321.321 0 0 1 .017.15v-.004l.002-.01.002-.007v-.005l.001-.002v-.001c0-.001.001-.002.974.23Zm-1.304 4.69.98-.199c-.123-.608.109-1.256.517-2.06.176-.347.425-.796.583-1.172.151-.357.353-.93.187-1.527l-.963.268-.964.268c-.03-.108.028-.095-.102.213-.123.29-.292.586-.524 1.045-.41.808-.967 2.016-.694 3.362l.98-.198Zm3.353 3.712.953-.303c-.183-.575-.601-.984-.939-1.265-.335-.279-.777-.574-1.095-.805-.739-.535-1.177-.972-1.292-1.538l-.98.199-.98.198c.281 1.389 1.333 2.221 2.079 2.761.423.307.722.5.989.722.121.101.202.182.253.245.05.062.06.09.059.09l.953-.304ZM11.709 5.5v-1c-1.447 0-2.923.797-4.104 1.657a17.59 17.59 0 0 0-2.997 2.806l.768.64.768.64a15.597 15.597 0 0 1 2.638-2.47c1.1-.8 2.14-1.273 2.927-1.273v-1Zm3.912 9.965-.953.303c.054.17.107.507.141 1.019a26.2 26.2 0 0 1 .045 1.683c0 .611-.012 1.244-.023 1.84-.012.59-.024 1.151-.024 1.603h2c0-.427.011-.964.023-1.565.012-.595.024-1.245.024-1.878 0-.633-.012-1.262-.05-1.817-.035-.532-.098-1.075-.23-1.49l-.953.302Zm-4.843-.977a43.29 43.29 0 0 1-.977-.213v-.003c0-.001 0 0 0 0l-.005.02-.028.103a5.328 5.328 0 0 1-.147.428c-.143.37-.384.887-.765 1.449-.757 1.115-2.072 2.42-4.336 3.123l.297.955.297.955c2.765-.86 4.43-2.485 5.397-3.91.48-.709.787-1.364.975-1.849a7.305 7.305 0 0 0 .262-.817l.005-.018v-.006l.002-.003v-.001l-.977-.213Zm5.402-8.011-.903.43c.045.095.095.254.166.539.062.25.143.612.242.965.204.73.534 1.623 1.226 2.43l.759-.651.759-.652c-.419-.487-.648-1.06-.818-1.666-.089-.317-.149-.592-.227-.908-.07-.283-.16-.621-.302-.917l-.902.43Zm1.49 3.713-.759.65c1.306 1.522 3.33 2.085 4.57 2.457l.287-.958.287-.958c-1.368-.41-2.77-.845-3.626-1.843l-.76.652ZM2.768 18.2l-.724.69 2.049 2.15.724-.69.724-.69-2.05-2.15-.723.69Zm3.725 3.713.682-.731L5.5 19.619l-.682.731-.682.732 1.676 1.563.682-.732Zm0 0-.365.931c.53.208.966.33 1.388.357.433.027.78-.053 1.063-.117l-.223-.975-.223-.975c-.28.064-.377.078-.492.07-.124-.007-.338-.047-.782-.221l-.366.93Zm6.706.587v1h2.608v-2h-2.608v1Zm2.608 0v1h1.863v-2h-1.863v1Zm1.863 0-.013 1c.65.008 1.211-.12 1.705-.477.438-.316.745-.763.996-1.132l-.826-.564-.825-.564c-.284.415-.406.56-.514.637-.052.038-.155.104-.51.1l-.013 1Z"/>
  <circle cx="16.268" cy="2.75" r="1.5" stroke="#0B0000" stroke-width="2"/>
</svg>
