<svg xmlns="http://www.w3.org/2000/svg" width="24" height="24" fill="none" viewBox="0 0 24 24">
  <path stroke="currentColor" stroke-linecap="round" stroke-width="2" d="M5.376 9.603C6.68 8.04 9.474 5.5 11.709 5.5c2.235 0 1.863 1.563 1.863 1.563.271.977-1.7 2.736-1.304 4.69.396 1.954 2.98 2.54 3.353 3.712.372 1.173.186 4.69.186 6.448m.373-15.436c.372.781.38 2.419 1.49 3.713 1.08 1.259 2.794 1.758 4.098 2.149M4.817 20.35c5.03-1.563 5.96-5.862 5.96-5.862m-5.96 5.862-2.05-2.15m2.05 2.15 1.676 1.563c.974.383 1.3.324 1.863.196m4.843.39h4.471c1.005.013 1.327-.389 1.862-1.172"/>
  <circle cx="16.268" cy="2.75" r="1.5" stroke="currentColor" stroke-linecap="round" stroke-width="2"/>
</svg>
