<svg xmlns="http://www.w3.org/2000/svg" width="24" height="24" fill="none" viewBox="0 0 24 24">
  <path fill="#0B0000" d="m6.74 19.985-.322.947.04.013.04.01.242-.97Zm4.088-11.608.09.996-.09-.996Zm-8.602 8.037A1 1 0 0 0 .74 17.752l.743-.67.743-.668Zm11.522 5.312-.241.97.017.005.016.003.208-.978Zm2.726.58-.208.979.049.01.05.005.11-.993Zm1.752.194-.11.994.126.014.125-.018-.14-.99Zm1.504.797a1 1 0 1 0-.281-1.98l.14.99.14.99Zm-5.982-9.31.445.896.212-.105.142-.188-.799-.603Zm-5.256.387.818.575-.818-.575Zm8.177-2.128.552.834a1.26 1.26 0 0 0 .456-.557c.068-.158.103-.315.124-.44a5.13 5.13 0 0 0 .053-.79c.002-.265-.005-.566-.01-.858-.007-.3-.01-.603-.005-.903.012-.619.066-1.14.19-1.515.12-.364.241-.41.288-.423l-.285-.959-.286-.958c-.926.276-1.39 1.029-1.616 1.71-.222.673-.278 1.444-.29 2.107-.007.34-.002.676.004.979.005.31.012.575.01.808a3.21 3.21 0 0 1-.025.47c-.007.041-.008.024.012-.023a.745.745 0 0 1 .275-.316l.553.834Zm1.363-5.61.285.958c.367-.11.504-.072.564-.047.084.034.259.147.537.57.277.422.586 1.038.985 1.93.398.888.857 1.98 1.447 3.349l.918-.396.918-.396c-.578-1.34-1.052-2.47-1.457-3.374-.404-.9-.768-1.645-1.14-2.21-.37-.564-.82-1.063-1.441-1.32-.645-.268-1.295-.204-1.902-.023l.286.958Zm-3.505.193-.52-.855s.001 0 0 0l-.003.003-.017.01-.07.041c-.062.036-.153.09-.268.154-.23.129-.548.302-.905.478-.761.374-1.534.678-2.006.72l.09.997.09.996c.883-.08 1.96-.55 2.709-.919a20.822 20.822 0 0 0 1.387-.751l.023-.014a.423.423 0 0 0 .006-.004l.003-.001-.519-.855Zm-3.699 1.548-.09-.996c-1.013.091-2.281.092-3.318.068a55.774 55.774 0 0 1-1.78-.07h-.006a1812.419 1812.419 0 0 1-.124 1.996h.01a29.499 29.499 0 0 0 .525.028c.332.015.796.034 1.329.046 1.056.024 2.415.025 3.544-.076l-.09-.996Zm-9.345 8.706-.743.669c1.33 1.479 2.728 2.177 5.678 3.18l.322-.947.321-.947c-2.872-.976-3.86-1.54-4.835-2.624l-.743.669Zm12.265 4.643-.208.978 2.726.58.208-.977.208-.979-2.725-.58-.209.978Zm2.726.58-.11.994 1.752.194.11-.994.11-.994-1.752-.193-.11.994Zm1.752.194.14.99 1.364-.193-.14-.99-.141-.99-1.363.193.14.99Zm-4.478-.774.242-.97c-.835-.208-1.725-.405-2.464-.57-.772-.173-1.32-.3-1.552-.377l-.314.95-.315.95c.352.116 1.028.268 1.744.429.749.167 1.611.358 2.418.559l.241-.97ZM9.66 20.76l.314-.95c-.332-.11-1.101-.313-1.744-.478a166.926 166.926 0 0 0-1.146-.291l-.076-.019-.02-.005-.006-.001H6.98l-.241.97-.242.97H6.5l.005.002.02.005a20.25 20.25 0 0 1 .345.086l.861.22c.672.173 1.362.357 1.614.44l.315-.95Zm3.699.532h1c0-.935-.025-1.84-.05-2.667-.024-.834-.047-1.578-.047-2.218 0-.65.025-1.134.082-1.458.029-.163.057-.236.065-.253.01-.02-.042.101-.216.188l-.445-.896-.445-.895a1.55 1.55 0 0 0-.696.736c-.12.248-.188.52-.233.774-.089.506-.112 1.136-.112 1.804 0 .677.025 1.457.049 2.277.024.826.048 1.705.048 2.608h1Zm.39-7.304.798.603c.047-.063.16-.171.374-.313.206-.136.456-.273.733-.41.28-.14.549-.261.822-.39.246-.117.53-.255.745-.397l-.552-.834-.553-.834c-.076.051-.23.13-.496.256-.237.113-.553.257-.856.408a8.923 8.923 0 0 0-.947.533c-.297.197-.622.452-.867.776l.798.602Zm-2.726-.774v-1c-.48 0-1.136.177-1.69.406-.537.221-1.253.601-1.66 1.18l.819.575.818.575c.062-.088.32-.29.785-.481.448-.185.824-.255.928-.255v-1Zm-2.531 1.161-.819-.575c-.462.658-.741 1.573-.99 2.505-.268 1-.517 2.094-.902 3.397l.959.284.958.284c.393-1.327.675-2.546.916-3.448.26-.97.467-1.546.696-1.872l-.818-.575Z"/>
  <circle cx="16.268" cy="2.75" r="1.5" stroke="#0B0000" stroke-width="2"/>
</svg>
