<svg xmlns="http://www.w3.org/2000/svg" width="24" height="24" fill="none" viewBox="0 0 24 24">
  <path stroke="currentColor" stroke-linecap="round" stroke-width="2" d="M13.359 21.29c0-3.675-.39-6.916.39-7.303.583-.774 2.336-1.354 2.92-1.741.584-.387-.584-5.03 1.363-5.61 1.947-.581 2.4.947 4.736 6.364m-8.24-6.171s-2.345 1.425-3.7 1.548c-2.142.193-5.257 0-5.257 0M6.74 19.985c-2.911-.99-4.104-1.62-5.257-2.902m5.257 2.902s2.336.58 2.92.774c.584.193 2.446.559 4.088.967l2.726.58 1.752.194 1.363-.193M6.74 19.985c.779-2.63 1.061-4.626 1.753-5.61.469-.668 1.947-1.162 2.53-1.162"/>
  <circle cx="16.268" cy="2.75" r="1.5" stroke="currentColor" stroke-linecap="round" stroke-width="2"/>
</svg>
