<svg xmlns="http://www.w3.org/2000/svg" width="24" height="24" fill="none" viewBox="0 0 24 24">
  <path fill="#0B0000" d="M2.752 19.698a1 1 0 0 0-1.96-.396l.98.198.98.198Zm19.652.573a1 1 0 1 0-1.273-1.542l.637.771.636.771Zm-1.444-.104.49.872.077-.044.07-.057-.637-.771ZM1.772 19.5c-.98-.198-.98-.197-.98-.196l-.001.003-.001.004-.002.01a1.156 1.156 0 0 0-.02.193c-.002.093.004.21.03.34.055.273.194.581.472.857.535.53 1.422.79 2.724.79v-2c-1.122 0-1.346-.241-1.316-.212a.342.342 0 0 1 .08.17.499.499 0 0 1 .005.173.811.811 0 0 1-.01.057v.007c0 .001 0 .002-.981-.196Zm2.222 1v1h10.099v-2H3.994v1Zm17.774-1-.637-.771-.808.666.637.772.636.771.808-.667-.636-.77Zm-.808.667-.49-.872c.007-.004-.015.01-.083.029a2.343 2.343 0 0 1-.27.057 8.325 8.325 0 0 1-.898.081c-.734.034-1.59.027-2.513.038l.012 1 .013 1c.86-.01 1.802-.004 2.581-.04.395-.019.78-.05 1.123-.104.323-.052.697-.14 1.015-.317l-.49-.872Z"/>
  <path stroke="#0B0000" stroke-width="2" d="M11.537 19.631c.615-8.267-2.846-6.452-2.846-8.267 0-1.815 0-5.041 2.256-5.041 2.257 0 2.53 2.017 3.488 2.42.957.403 1.65.403 4.111.403M4.768 20.035c1.64-3.63 2.256-5.445 2.872-6.654m7.18-7.461c2.025-.403 3.552-.743 4.922-1.613m1.026-.807-1.026.807m0 0c-.205.62-3.077 12.703-3.077 12.703m0 0c-1.44.777-1.978 1.486-2.666 3.025-.307 1.437-.16 2.043 1.23 2.42 1.458.33 2.257-1.21 2.257-2.017 0-.806-.265-2.395-.82-3.428Z"/>
  <circle cx="12.268" cy="2.75" r="1.5" stroke="#0B0000" stroke-width="2"/>
</svg>
