<svg xmlns="http://www.w3.org/2000/svg" width="24" height="24" fill="none" viewBox="0 0 24 24">
  <path stroke="currentColor" stroke-linecap="round" stroke-width="2" d="M1.772 19.5s-.202 1 2.222 1h10.099m7.675-1-.808.667c-.645.362-2.46.311-4.242.333"/>
  <path stroke="currentColor" stroke-linecap="round" stroke-width="2" d="M11.537 19.631c.615-8.267-2.846-6.452-2.846-8.267 0-1.815 0-5.041 2.256-5.041 2.257 0 2.53 2.017 3.488 2.42.957.403 1.65.403 4.111.403M4.768 20.035c1.64-3.63 2.256-5.445 2.872-6.654m7.18-7.461c2.025-.403 3.552-.743 4.922-1.613m1.026-.807-1.026.807m0 0c-.205.62-3.077 12.703-3.077 12.703m0 0c-1.44.777-1.978 1.486-2.666 3.025-.307 1.437-.16 2.043 1.23 2.42 1.458.33 2.257-1.21 2.257-2.017 0-.806-.265-2.395-.82-3.428Z"/>
  <circle cx="12.268" cy="2.75" r="1.5" stroke="currentColor" stroke-linecap="round" stroke-width="2"/>
</svg>
