<svg xmlns="http://www.w3.org/2000/svg" width="24" height="25" fill="none" viewBox="0 0 24 25">
  <path stroke="currentColor" stroke-linecap="round" stroke-width="2" d="M19.488 23.75V7.232M4.875 10.621c2.147 2.032 2.728 1.059 2.922 1.058.195 0 1.056-3.224 1.754-6.14.698-2.917-6.824 3.049-4.676 5.082ZM17.142 23.75c-.395-9.111-5.506-9.111-5.506-10.82 0-1.708.815-5.694 2.963-5.125 2.148.57 2.148 2.088 2.938 2.658.79.57 1.58.57 3.95.57m-16 12.147c4.346-2.847 5.137-4.935 5.532-6.833"/>
  <circle cx="15.268" cy="3" r="1.5" stroke="currentColor" stroke-linecap="round" stroke-width="2"/>
</svg>
