<svg xmlns="http://www.w3.org/2000/svg" width="24" height="24" fill="none" viewBox="0 0 24 24">
  <path stroke="#0B0000" stroke-width="2" d="M2.723 9.917C4.213 8.785 6.635 6.71 7.94 6.52c1.304-.189 2.631.943 2.794 1.51.163.565-1.28 2.452-1.28 4.15 0 1.698 3.143 3.584 3.515 4.716.373 1.132 0 5.66 0 6.603M7.94 15.01c-.745.944-1.49 2.076-2.794 2.453H.488M13.341 7.087c.186 1.132 1.304 3.584 1.676 4.15.745.755 2.608.566 4.471.566"/>
  <circle cx="12.988" cy="3" r="1.5" stroke="#0B0000" stroke-width="2"/>
  <circle cx="19.768" cy="4.5" r="3.5" stroke="#0B0000"/>
  <path fill="#000" d="M19.768 2.5 21.5 6.25h-3.464l1.732-3.75Z"/>
</svg>
