<svg xmlns="http://www.w3.org/2000/svg" width="16" height="16" fill="none" viewBox="0 0 16 16">
  <path fill="#212529" d="M0 2.5A.5.5 0 0 1 .5 2H2a.5.5 0 0 1 .485.379L2.89 4H14.5a.5.5 0 0 1 .485.621l-1.5 6A.5.5 0 0 1 13 11H4a.5.5 0 0 1-.485-.379L1.61 3H.5a.5.5 0 0 1-.5-.5ZM3.14 5l.5 2H5V5H3.14ZM6 5v2h2V5H6Zm3 0v2h2V5H9Zm3 0v2h1.36l.5-2H12Zm1.11 3H12v2h.61l.5-2ZM11 8H9v2h2V8ZM8 8H6v2h2V8ZM5 8H3.89l.5 2H5V8Zm0 5a1 1 0 1 0 0 2 1 1 0 0 0 0-2Zm-2 1a2 2 0 1 1 4 0 2 2 0 0 1-4 0Zm9-1a1 1 0 1 0 0 2 1 1 0 0 0 0-2Zm-2 1a2 2 0 1 1 4 0 2 2 0 0 1-4 0Z"/>
</svg>
