<svg xmlns="http://www.w3.org/2000/svg" width="16" height="16" fill="none" viewBox="0 0 16 16">
  <path fill="#212529" d="M0 0h.969v.5H1v.469H.969V1H.5V.969H0V0Zm2.844 1h-.938V0h.938v1Zm1.875 0H3.78V0h.938v1Zm1.875 0h-.938V0h.938v1Zm.937 0V.969H7.5V.5h.031V0h.938v.5H8.5v.469h-.031V1H7.53Zm2.813 0h-.938V0h.938v1Zm1.875 0h-.938V0h.938v1Zm1.875 0h-.938V0h.938v1ZM15.5 1h-.469V.969H15V.5h.031V0H16v.969h-.5V1ZM1 1.906v.938H0v-.938h1Zm6.5.938v-.938h1v.938h-1Zm7.5 0v-.938h1v.938h-1ZM1 3.78v.938H0V3.78h1Zm6.5.938V3.78h1v.938h-1Zm7.5 0V3.78h1v.938h-1ZM1 5.656v.938H0v-.938h1Zm6.5.938v-.938h1v.938h-1Zm7.5 0v-.938h1v.938h-1ZM.969 8.5H.5v-.031H0V7.53h.5V7.5h.469v.031H1v.938H.969V8.5Zm1.875 0h-.938v-1h.938v1Zm1.875 0H3.78v-1h.938v1Zm1.875 0h-.938v-1h.938v1Zm1.875-.031V8.5H7.53v-.031H7.5V7.53h.031V7.5h.938v.031H8.5v.938h-.031Zm1.875.031h-.938v-1h.938v1Zm1.875 0h-.938v-1h.938v1Zm1.875 0h-.938v-1h.938v1Zm1.406 0h-.469v-.031H15V7.53h.031V7.5h.469v.031h.5v.938h-.5V8.5ZM0 10.344v-.938h1v.938H0Zm7.5 0v-.938h1v.938h-1Zm8.5-.938v.938h-1v-.938h1ZM0 12.22v-.938h1v.938H0Zm7.5 0v-.938h1v.938h-1Zm8.5-.938v.938h-1v-.938h1ZM0 14.094v-.938h1v.938H0Zm7.5 0v-.938h1v.938h-1Zm8.5-.938v.938h-1v-.938h1ZM.969 16H0v-.969h.5V15h.469v.031H1v.469H.969v.5Zm1.875 0h-.938v-1h.938v1Zm1.875 0H3.78v-1h.938v1Zm1.875 0h-.938v-1h.938v1Zm.937 0v-.5H7.5v-.469h.031V15h.938v.031H8.5v.469h-.031v.5H7.53Zm2.813 0h-.938v-1h.938v1Zm1.875 0h-.938v-1h.938v1Zm1.875 0h-.938v-1h.938v1Zm.937 0v-.5H15v-.469h.031V15h.469v.031h.5V16h-.969Z"/>
</svg>
