<svg xmlns="http://www.w3.org/2000/svg" width="16" height="16" fill="none" viewBox="0 0 16 16">
  <path fill="#212529" d="M7.5 1.906v.938h1v-.938h-1Zm0 1.875v.938h1V3.78h-1Zm0 1.875v.938h1v-.938h-1ZM1.906 8.5h.938v-1h-.938v1Zm1.875 0h.938v-1H3.78v1Zm1.875 0h.938v-1h-.938v1Zm2.813 0v-.031H8.5V7.53h-.031V7.5H7.53v.031H7.5v.938h.031V8.5h.938Zm.937 0h.938v-1h-.938v1Zm1.875 0h.938v-1h-.938v1Zm1.875 0h.938v-1h-.938v1ZM7.5 9.406v.938h1v-.938h-1Zm0 1.875v.938h1v-.938h-1Zm0 1.875v.938h1v-.938h-1Z"/>
  <path fill="#212529" d="M0 0v16h16V0H0Zm1 1h14v14H1V1Z"/>
</svg>
