<svg xmlns="http://www.w3.org/2000/svg" width="16" height="16" fill="none" viewBox="0 0 16 16">
  <path fill="#212529" d="M.969 0H0v.969h.5V1h.469V.969H1V.5H.969V0Zm.937 1h.938V0h-.938v1Zm1.875 0h.938V0H3.78v1Zm1.875 0h.938V0h-.938v1ZM8.5 16h-1V0h1v16Zm.906-15h.938V0h-.938v1Zm1.875 0h.938V0h-.938v1Zm1.875 0h.938V0h-.938v1Zm1.875 0h.469V.969h.5V0h-.969v.5H15v.469h.031V1ZM1 2.844v-.938H0v.938h1Zm14-.938v.938h1v-.938h-1ZM1 4.719V3.78H0v.938h1Zm14-.938v.938h1V3.78h-1ZM1 6.594v-.938H0v.938h1Zm14-.938v.938h1v-.938h-1ZM.5 8.5h.469v-.031H1V7.53H.969V7.5H.5v.031H0v.938h.5V8.5Zm1.406 0h.938v-1h-.938v1Zm1.875 0h.938v-1H3.78v1Zm1.875 0h.938v-1h-.938v1Zm3.75 0h.938v-1h-.938v1Zm1.875 0h.938v-1h-.938v1Zm1.875 0h.938v-1h-.938v1Zm1.875 0h.469v-.031h.5V7.53h-.5V7.5h-.469v.031H15v.938h.031V8.5ZM0 9.406v.938h1v-.938H0Zm16 .938v-.938h-1v.938h1Zm-16 .937v.938h1v-.938H0Zm16 .938v-.938h-1v.938h1Zm-16 .937v.938h1v-.938H0Zm16 .938v-.938h-1v.938h1ZM0 16h.969v-.5H1v-.469H.969V15H.5v.031H0V16Zm1.906 0h.938v-1h-.938v1Zm1.875 0h.938v-1H3.78v1Zm1.875 0h.938v-1h-.938v1Zm3.75 0h.938v-1h-.938v1Zm1.875 0h.938v-1h-.938v1Zm1.875 0h.938v-1h-.938v1Zm1.875-.5v.5H16v-.969h-.5V15h-.469v.031H15v.469h.031Z"/>
</svg>
