<svg xmlns="http://www.w3.org/2000/svg" width="16" height="16" fill="none" viewBox="0 0 16 16">
  <path fill="#212529" d="M0 0v1h16V0H0Zm1 2.844v-.938H0v.938h1Zm6.5-.938v.938h1v-.938h-1Zm7.5 0v.938h1v-.938h-1ZM1 4.719V3.78H0v.938h1Zm6.5-.938v.938h1V3.78h-1Zm7.5 0v.938h1V3.78h-1ZM1 6.594v-.938H0v.938h1Zm6.5-.938v.938h1v-.938h-1Zm7.5 0v.938h1v-.938h-1ZM.5 8.5h.469v-.031H1V7.53H.969V7.5H.5v.031H0v.938h.5V8.5Zm1.406 0h.938v-1h-.938v1Zm1.875 0h.938v-1H3.78v1Zm1.875 0h.938v-1h-.938v1Zm2.813 0v-.031H8.5V7.53h-.031V7.5H7.53v.031H7.5v.938h.031V8.5h.938Zm.937 0h.938v-1h-.938v1Zm1.875 0h.938v-1h-.938v1Zm1.875 0h.938v-1h-.938v1Zm1.875 0h.469v-.031h.5V7.53h-.5V7.5h-.469v.031H15v.938h.031V8.5ZM0 9.406v.938h1v-.938H0Zm7.5 0v.938h1v-.938h-1Zm8.5.938v-.938h-1v.938h1Zm-16 .937v.938h1v-.938H0Zm7.5 0v.938h1v-.938h-1Zm8.5.938v-.938h-1v.938h1Zm-16 .937v.938h1v-.938H0Zm7.5 0v.938h1v-.938h-1Zm8.5.938v-.938h-1v.938h1ZM0 16h.969v-.5H1v-.469H.969V15H.5v.031H0V16Zm1.906 0h.938v-1h-.938v1Zm1.875 0h.938v-1H3.78v1Zm1.875 0h.938v-1h-.938v1Zm1.875-.5v.5h.938v-.5H8.5v-.469h-.031V15H7.53v.031H7.5v.469h.031Zm1.875.5h.938v-1h-.938v1Zm1.875 0h.938v-1h-.938v1Zm1.875 0h.938v-1h-.938v1Zm1.875-.5v.5H16v-.969h-.5V15h-.469v.031H15v.469h.031Z"/>
</svg>
