<svg xmlns="http://www.w3.org/2000/svg" width="16" height="16" fill="none" viewBox="0 0 16 16">
  <path fill="#212529" d="M12 8a4 4 0 1 1-8 0 4 4 0 0 1 8 0ZM8.5 2.5a.5.5 0 1 1-1 0 .5.5 0 0 1 1 0Zm0 11a.5.5 0 1 1-1 0 .5.5 0 0 1 1 0Zm5-5a.5.5 0 1 1 0-1 .5.5 0 0 1 0 1Zm-11 0a.5.5 0 1 1 0-1 .5.5 0 0 1 0 1Zm9.743-4.036a.5.5 0 1 1-.707-.707.5.5 0 0 1 .707.707Zm-7.779 7.779a.5.5 0 1 1-.707-.707.5.5 0 0 1 .707.707Zm7.072 0a.5.5 0 1 1 .707-.707.5.5 0 0 1-.707.707ZM3.757 4.464a.5.5 0 1 1 .707-.707.5.5 0 0 1-.707.707Z"/>
</svg>
