<svg xmlns="http://www.w3.org/2000/svg" width="64" height="64" fill="none" viewBox="0 0 64 64">
  <path stroke="currentColor" stroke-width="4" d="M11.063 31c-.5 0-1.49 3.3-7-1.5-5.511-4.799 12.29-17.885 10.5-11-1.791 6.886-3 12.5-3.5 12.5ZM36.5 59l4.563-2 1.5-6L54.5 40.5l-4-6.5L58 23l-2-6 5-11.5M42 28l1-10"/>
  <path fill="currentColor" d="M39 17.5c-.5-1-.144-2.33.5-3.5s7.417 1.402 10.5 4.5c0 0-10.5 0-11-1Z"/>
  <path stroke="currentColor" stroke-width="4" d="M34.563 53.5c-1.5-19-14.5-18-14.5-22.5s0-12.5 5.5-12.5 6.166 5 8.5 6c2.333 1 3.5 1.5 9.5 1.5m-38 32c8.917-5.983 12.5-16 12.5-19"/>
  <circle cx="28.063" cy="7.5" r="4.5" stroke="currentColor" stroke-width="4"/>
</svg>
