<svg xmlns="http://www.w3.org/2000/svg" width="64" height="64" fill="none" viewBox="0 0 64 64">
  <path stroke="currentColor" stroke-width="4" d="M7 25c4-3 10.5-8.5 14-9s7.062 2.5 7.5 4c.438 1.5-3.438 6.5-3.437 11 0 4.5 8.437 9.5 9.437 12.5s0 15 0 17.5"/>
  <path stroke="currentColor" stroke-width="4" d="M21 38.5C19 41 17 44 13.5 45H1m34.5-27.5c.5 3 3.5 9.5 4.5 11 2 2 7 1.5 12 1.5"/>
  <circle cx="33.5" cy="7.5" r="4.5" stroke="currentColor" stroke-width="4"/>
  <circle cx="57" cy="17" r="3.5" stroke="currentColor" stroke-width="3"/>
  <circle cx="51" cy="7" r="5" fill="currentColor"/>
  <path fill="currentColor" d="M50.5 17.5a5 5 0 1 1-10 0 5 5 0 0 1 10 0Z"/>
</svg>
