<svg xmlns="http://www.w3.org/2000/svg" width="64" height="64" fill="none" viewBox="0 0 64 64">
  <path stroke="currentColor" stroke-width="4" d="M14.4 24.582c11.429-11.429 15.37-4.335 18.523 0"/>
  <path stroke="currentColor" stroke-width="4" d="M3 35.5c4 0 6-4.5 9.5-4.5s5.394 4.5 9.5 4.5c4.104 0 5.394-4.5 9.5-4.5 4.104 0 5.395 4.587 9.5 4.5 3.928-.084 5.07-4.591 9-4.5 3.754.087 6 4.5 10 4.5M3 48.501c4 0 6-4.5 9.5-4.5s5.394 4.5 9.5 4.5c4.104 0 5.394-4.5 9.5-4.5 4.104 0 5.395 4.588 9.5 4.5 3.928-.083 5.07-4.591 9-4.5 3.754.088 6 4.5 10 4.5"/>
  <circle cx="42.776" cy="16.306" r="4.306" stroke="currentColor" stroke-width="4"/>
</svg>
