<svg xmlns="http://www.w3.org/2000/svg" width="64" height="64" fill="none" viewBox="0 0 64 64">
  <path stroke="currentColor" stroke-width="4" d="M45.5 51.5c-.02-3.42.913-4.318 2.5-6 2.538-1.239 3.962-1.453 6.5 0l5 7-9 6.5-5-7.5ZM18 13.5c1.798-1.349 3.192-2.293 4.5-2.97 1.601-.828 3.073-1.255 5-1.53 3.5-.5 10.562 5 11 6.5.438 1.5-13 7-13 11.5s5.5 5.5 6.5 8.5 1 16.5 1 19m-12-23c-1 4-1 6-3 10.5L5 51.5m39.5-30c-1 4-2 7.5-2 7.5v8m-20-26.47L48 45.5"/>
  <circle cx="49" cy="11.5" r="4.5" stroke="currentColor" stroke-width="4"/>
</svg>
