<svg xmlns="http://www.w3.org/2000/svg" width="64" height="64" fill="none" viewBox="0 0 64 64">
  <path stroke="currentColor" stroke-width="4" d="M8.647 49.732c4-3.5 3.968-1.908 7-1.5 0 3 1 3-1.5 5.5l-7 6.5c-3.5 2-6.5-2.5-4.5-4.5l6-6Zm40.5-40.499s-2.5 3.5-1 6.5c4.5 1 5-.5 6-1 4.5-4 5-4.5 7-6.5 1.5-2.5-2.5-7-6-4.5l-6 5.5Zm-11.5 16.999c-3.5-3-10-7-11-7s-1 7.5-1 13c-10 0-20.297-.073-22 1.5-1.703 1.574 8 6.5 18 8.5s23-.5 23-.5c11.5-3 16.5-5.5 14-7 0-3.5-15-2.5-15-2.5h-12l6-6Zm0 0 10.5-10.5"/>
  <path stroke="currentColor" stroke-width="4" d="M25.647 32.232h6l-16 16"/>
  <circle cx="26.147" cy="10.232" r="4.5" stroke="currentColor" stroke-width="4"/>
</svg>
