<svg xmlns="http://www.w3.org/2000/svg" width="64" height="64" fill="none" viewBox="0 0 64 64">
  <path stroke="currentColor" stroke-width="4" d="M16.5 24.357c4-3 9.5-8 13-8.5s8.562 1 9 2.5c.438 1.5-3.438 7-3.437 11.5 0 4.5 7.937 8.5 8.937 11.5 1 3 .5 11 .5 13.5m-13-16.5c-2 2.5-4 5.5-7 8l-10 6m30.5-33c1 3 2.5 7 3.5 8.5 2 2 7 4.5 11.5 6.5"/>
  <circle cx="45.5" cy="8.357" r="4.5" stroke="currentColor" stroke-width="4"/>
  <circle cx="39.143" cy="60" r="2.143" fill="currentColor"/>
  <circle cx="44.5" cy="60" r="2.143" fill="currentColor"/>
  <circle cx="49.857" cy="60" r="2.143" fill="currentColor"/>
  <circle cx="7.972" cy="49.829" r="2.143" fill="currentColor" transform="rotate(56.32 7.972 49.829)"/>
  <circle cx="10.942" cy="54.287" r="2.143" fill="currentColor" transform="rotate(56.32 10.942 54.287)"/>
  <circle cx="13.913" cy="58.745" r="2.143" fill="currentColor" transform="rotate(56.32 13.913 58.745)"/>
</svg>
