<svg xmlns="http://www.w3.org/2000/svg" width="64" height="64" fill="none" viewBox="0 0 64 64">
  <path stroke="currentColor" stroke-width="4" d="M15.905 24.485C19.405 20.485 25 16.5 31 16.5s6.5 2.5 6.5 3.5-4.563 4.5-3.5 9.5c1.063 5 7.5 3.5 8.5 6.5s.5 4.5.5 9m.5-25.5C46 21 47.5 22 50 23c3 1.2 5.925-3.355 8.5-6.5m2-3c-.5 1-1.553 2.454-2 3M13.5 48c.5-.5 12-12.5 12-12.5m-24 7s26.5 16 29.5 17 5 1 7.5 0M17.306 23 3.5 9M54 40l4.5-23.5M27 47h28.5c3 0 4.5-1.5 5.5-3"/>
  <circle cx="43.5" cy="7.5" r="4.5" stroke="currentColor" stroke-width="4"/>
</svg>
