<svg xmlns="http://www.w3.org/2000/svg" width="64" height="64" fill="none" viewBox="0 0 64 64">
  <path stroke="currentColor" stroke-width="4" d="m46.211 43 1-23m-39 14.5c2.5.385 7 1 7.5 1s1.563-11.333 3.5-17.5c.747-2.378-4.656-.634-7.5 2-4.531 4.195-6 14.115-3.5 14.5Z"/>
  <path stroke="currentColor" stroke-width="4" d="m8.711 61.5 43.5-15c3.285-2.072 4.455-3.748 5.5-7.5"/>
  <path stroke="currentColor" stroke-width="4" d="M15.711 58c6.563-17.5 8.5-19.5 8.5-24s1.5-17.517 7-16c5.5 1.518 4.5 3 8 4s7-2 11.5-4m-13.5 33c.5-13.5.5-14-7.438-16"/>
  <circle cx="30.711" cy="7.5" r="4.5" stroke="currentColor" stroke-width="4"/>
</svg>
