<svg xmlns="http://www.w3.org/2000/svg" width="64" height="64" fill="none" viewBox="0 0 64 64">
  <path fill="currentColor" d="m17.5 54.5-.647 1.892.08.028.082.02.485-1.94Zm10.5-30 .181 1.992L28 24.5ZM5.49 45.667a2 2 0 0 0-2.98 2.666L4 47l1.49-1.333ZM35.5 59l-.486 1.94.033.008.034.008L35.5 59Zm7 1.5-.42 1.956.1.02.1.012.22-1.988Zm4.5.5-.22 1.988.252.028.25-.036L47 61Zm3.783 1.48a2 2 0 0 0-.566-3.96l.283 1.98.283 1.98ZM35.5 39l.894 1.789.423-.211.283-.378-1.6-1.2ZM22 40l1.64 1.145L22 40Zm21-5.5 1.11 1.664c.537-.358.815-.85.959-1.184.149-.348.23-.702.28-1 .099-.592.123-1.282.128-1.944.004-.677-.015-1.446-.03-2.206a62.777 62.777 0 0 1-.01-2.355c.03-1.613.17-3.036.517-4.091.342-1.038.752-1.358 1.12-1.468L46.5 20l-.575-1.916c-2.131.64-3.221 2.382-3.77 4.048-.543 1.648-.685 3.568-.717 5.268a66.48 66.48 0 0 0 .01 2.506c.016.797.032 1.493.029 2.105-.004.627-.03 1.05-.074 1.31-.021.13-.035.138-.008.077.02-.048.146-.329.496-.562L43 34.5ZM46.5 20l.575 1.916c1.023-.307 1.751-.327 2.36-.164.61.163 1.33.572 2.217 1.539 1.862 2.025 3.996 5.964 7.01 12.997L60.5 35.5l1.838-.788c-2.986-6.968-5.352-11.529-7.74-14.128-1.237-1.346-2.58-2.28-4.127-2.695-1.547-.415-3.069-.248-4.546.195L46.5 20Zm-9 .5a1000.441 1000.441 0 0 1-1.044-1.706h-.001l-.01.007a7.768 7.768 0 0 1-.228.136 48.828 48.828 0 0 1-3.05 1.652c-1.952.967-4.023 1.8-5.348 1.92L28 24.5l.181 1.992c2.153-.196 4.833-1.363 6.76-2.318a53.03 53.03 0 0 0 3.58-1.954l.015-.01a.088.088 0 0 1 .005-.002l.002-.001L37.5 20.5Zm-9.5 4-.181-1.991c-2.633.239-5.917.241-8.585.18a142.839 142.839 0 0 1-4.525-.18l-.064-.004h-.02L14.5 24.5l-.124 1.996h.007l.019.002.071.004.271.016a146.582 146.582 0 0 0 4.397.17c2.707.062 6.173.064 9.04-.196L28 24.5ZM4 47l-1.49 1.333c3.316 3.71 6.788 5.476 14.343 8.06L17.5 54.5l.647-1.892c-7.397-2.53-10.049-4.025-12.656-6.941L4 47Zm31.5 12-.42 1.956 7 1.5.42-1.956.42-1.956-7-1.5L35.5 59Zm7 1.5-.22 1.988 4.5.5L47 61l.22-1.988-4.5-.5-.22 1.988Zm4.5.5.283 1.98 3.5-.5-.283-1.98-.283-1.98-3.5.5L47 61Zm-11.5-2 .486-1.94c-2.137-.535-4.415-1.041-6.315-1.47-1.966-.443-3.41-.778-4.038-.987L25 56.5l-.633 1.897c.871.29 2.57.678 4.424 1.096 1.921.433 4.143.926 6.223 1.447L35.5 59ZM25 56.5l.633-1.897c-.83-.277-2.785-.797-4.444-1.227a426.185 426.185 0 0 0-3.135-.799l-.051-.013a.62.62 0 0 0-.013-.003l-.004-.001-.486 1.94-.485 1.94.004.001.013.003.05.013.191.048.697.176c.583.148 1.377.35 2.216.568 1.716.444 3.512.925 4.181 1.148L25 56.5Zm9.5 1.375h2c0-2.407-.063-4.737-.126-6.875-.063-2.15-.124-4.083-.124-5.75 0-1.686.064-2.978.22-3.87.078-.448.163-.696.217-.81.057-.117 0 .072-.293.219L35.5 39l-.894-1.789c-.794.397-1.256 1.067-1.528 1.635-.274.573-.439 1.218-.548 1.845-.22 1.255-.28 2.84-.28 4.56 0 1.739.064 3.744.126 5.866.062 2.137.124 4.415.124 6.758h2ZM35.5 39l1.6 1.2c.18-.239.53-.56 1.103-.942.556-.371 1.223-.735 1.941-1.094.728-.364 1.43-.685 2.122-1.015.637-.303 1.33-.642 1.843-.985L43 34.5l-1.11-1.664c-.235.157-.668.38-1.344.702-.62.295-1.418.662-2.19 1.048-.782.39-1.616.84-2.372 1.344-.739.492-1.513 1.11-2.084 1.87l1.6 1.2Zm-7-2v-2c-1.128 0-2.734.427-4.128 1.006-1.36.564-3.067 1.495-4.012 2.85L22 40l1.64 1.145c.259-.371 1.051-.94 2.266-1.445 1.18-.49 2.223-.7 2.594-.7v-2ZM22 40l-1.64-1.145c-1.119 1.604-1.816 3.867-2.459 6.287-.68 2.555-1.327 5.419-2.32 8.794l1.919.564 1.919.564c1.006-3.421 1.72-6.535 2.348-8.895.663-2.495 1.216-4.083 1.873-5.024L22 40Z"/>
  <circle cx="42" cy="9.5" r="4.5" stroke="currentColor" stroke-width="4"/>
</svg>
