<svg xmlns="http://www.w3.org/2000/svg" width="64" height="64" fill="none" viewBox="0 0 64 64">
  <path fill="currentColor" d="m35 21.5-1.94-.486-.132.526.152.52L35 21.5Zm-23.5 34-1.414 1.414.041.041.044.04L11.5 55.5Zm34.5-26 1.486-1.339L46 29.5ZM7.414 48.585a2 2 0 1 0-2.828 2.829L6 49.999l1.414-1.414ZM16 59.5l-1.329 1.495.279.248.349.13L16 59.5Zm5.426 2.455a2 2 0 1 0-.852-3.909L21 60l.426 1.955ZM34 58.999a2 2 0 1 0 0 4v-4Zm12 2 .024-2H46v2Zm6.626-1.835a2 2 0 1 0-3.252-2.33L51 58l1.626 1.165ZM35 21.5c1.94.486 1.94.484 1.941.483v-.003l.002-.006.003-.013.008-.031a3.5 3.5 0 0 0 .057-.319 5.17 5.17 0 0 0 .051-.735 5.08 5.08 0 0 0-.523-2.27C35.583 16.694 33.455 15.5 30 15.5v4c2.544 0 2.917.806 2.961.895.072.144.102.315.102.48 0 .078-.007.14-.012.17l-.002.018a.469.469 0 0 1 .006-.029l.002-.009.001-.004.001-.003c0-.001 0-.003 1.941.483Zm-3.5 12 1.956-.415c-.367-1.726.334-3.516 1.434-5.582.49-.918 1.134-2.027 1.55-2.966.398-.898.878-2.234.48-3.597L35 21.5l-1.92.56c-.033-.112.06.052-.297.857-.339.764-.813 1.561-1.423 2.706-1.098 2.06-2.512 5.02-1.816 8.293L31.5 33.5Zm9 9.5 1.897-.632c-.442-1.327-1.458-2.287-2.333-2.981-.875-.695-2.014-1.418-2.904-2.033-2.002-1.381-3.352-2.615-3.704-4.27L31.5 33.5l-1.956.416c.71 3.346 3.361 5.362 5.343 6.73 1.102.76 1.952 1.288 2.691 1.874.74.588.967.94 1.025 1.113L40.5 43ZM30 17.5v-2c-3.63 0-7.428 1.922-10.578 4.107-3.215 2.231-6.085 4.971-7.927 7.076L13 28l1.505 1.317c1.658-1.895 4.288-4.405 7.198-6.424C24.678 20.828 27.63 19.5 30 19.5v-2ZM40.5 43l-1.897.633c.165.495.31 1.406.402 2.718.089 1.269.12 2.763.12 4.337 0 1.57-.03 3.193-.062 4.717C39.032 56.917 39 58.35 39 59.5h4c0-1.099.03-2.479.062-4.013.031-1.523.063-3.182.063-4.799 0-1.613-.031-3.213-.13-4.617-.095-1.358-.263-2.698-.598-3.703L40.5 43Zm-13-2.5c-1.95-.443-1.95-.444-1.95-.445v-.001a.059.059 0 0 1 .002-.005l-.002.006-.015.058a7.566 7.566 0 0 1-.08.281c-.08.257-.21.646-.409 1.134a19 19 0 0 1-2.113 3.813c-2.09 2.937-5.736 6.386-12.001 8.242L11.5 55.5l.568 1.918c7.235-2.144 11.589-6.195 14.124-9.758a22.99 22.99 0 0 0 2.559-4.624c.247-.607.417-1.108.527-1.468a11.512 11.512 0 0 0 .157-.559l.01-.04c0-.006.002-.01.003-.015l.001-.006v-.002c.001-.001.001-.002-1.949-.446ZM42 20l-1.789.895c.147.293.292.745.481 1.472.172.658.384 1.563.646 2.456.541 1.843 1.4 4.043 3.176 6.016L46 29.5l1.486-1.339c-1.204-1.337-1.846-2.887-2.31-4.466-.24-.819-.406-1.543-.613-2.337-.189-.724-.42-1.546-.774-2.253L42 20Zm4 9.5-1.486 1.339c3.356 3.727 8.571 5.123 11.937 6.085L57 34.999l.55-1.922c-3.635-1.039-7.617-2.198-10.064-4.916L46 29.5ZM6 50l-1.414 1.415 5.5 5.5L11.5 55.5l1.414-1.414-5.5-5.5L6 50Zm10 9.5 1.329-1.494-4.5-4L11.5 55.5l-1.329 1.495 4.5 4L16 59.5Zm0 0-.701 1.874c1.391.52 2.477.802 3.496.863 1.037.062 1.874-.117 2.631-.282L21 59.999l-.426-1.954c-.753.164-1.109.224-1.54.198-.45-.026-1.11-.159-2.333-.617L16 59.5ZM34 61v2h7v-4h-7v2Zm7 0v2h5v-4h-5v2Zm5 0-.024 2c1.626.02 2.96-.283 4.13-1.087 1.067-.733 1.832-1.787 2.52-2.748L51 58l-1.626-1.164c-.748 1.044-1.134 1.506-1.533 1.78-.296.203-.744.398-1.817.385L46 61Z"/>
  <circle cx="42.5" cy="9.5" r="4.5" stroke="currentColor" stroke-width="4"/>
</svg>
