<svg xmlns="http://www.w3.org/2000/svg" width="64" height="64" fill="none" viewBox="0 0 64 64">
  <path fill="currentColor" d="M8.908 54.326a2 2 0 1 0-3.795-1.265l1.897.632 1.898.633Zm48.497 1.156a2 2 0 0 0-1.79-3.578l.895 1.79.895 1.788Zm-2.895-.789.644 1.894.13-.044.12-.06-.894-1.79Zm-47.5-1c-1.897-.632-1.898-.629-1.9-.625a.81.81 0 0 0-.015.049 2.079 2.079 0 0 0-.05.201 2.467 2.467 0 0 0 .084 1.242c.23.691.728 1.224 1.352 1.598 1.123.674 2.976 1.035 6.03 1.035v-4c-2.948 0-3.845-.389-3.972-.465 0 0 .248.158.384.567a1.534 1.534 0 0 1 .044.807 1.806 1.806 0 0 1-.057.217c-.001.003-.002.007-1.9-.626Zm5.5 1.5v2h25v-4h-25v2Zm44-1.5-.894-1.788-2 1 .894 1.788.895 1.79 2-1-.895-1.79Zm-2 1-.644-1.893c-.171.058-.562.139-1.243.205a35.56 35.56 0 0 1-2.363.13c-1.847.053-4.02.042-6.265.058l.015 2 .015 2c2.169-.016 4.447-.005 6.348-.06a39.4 39.4 0 0 0 2.638-.147c.748-.073 1.517-.186 2.143-.4l-.644-1.893Z"/>
  <path stroke="currentColor" stroke-width="4" d="M31.01 53.693c1.5-20.5-6.937-16-6.937-20.5s0-12.5 5.5-12.5 6.166 5 8.5 6c2.333 1 4.023 1 10.023 1m-33.586 27c4-9 5.5-13.5 7-16.5m17.5-18.5c4.938-1 8.66-1.843 12-4m2.5-2-2.5 2m0 0c-.5 1.537-7.5 31.5-7.5 31.5m0 0c-3.51 1.928-4.823 3.684-6.5 7.5-.747 3.563-.388 5.067 3 6 3.554.819 5.5-3 5.5-5s-.646-5.94-2-8.5Z"/>
  <circle cx="32.073" cy="9.693" r="4.5" stroke="currentColor" stroke-width="4"/>
</svg>
