<svg xmlns="http://www.w3.org/2000/svg" width="12" height="10" fill="none" viewBox="0 0 12 10">
  <path fill="#212529" d="M10.073.645c-.197 0-.356.12-.356.27 0 .15.16.27.356.27h1.065v1.489h-.355c-.196 0-.355.12-.355.27 0 .15.159.27.355.27h.355v1.489h-1.065c-.197 0-.356.12-.356.27 0 .15.16.27.356.27h1.065v1.489h-.355c-.196 0-.355.12-.355.27 0 .15.159.27.355.27h.355v1.489h-1.065c-.197 0-.356.12-.356.27 0 .15.16.27.356.27h1.42c.196 0 .355-.12.355-.27V.915c0-.15-.159-.27-.355-.27h-1.42Zm-4.617.811.258-.185a.415.415 0 0 0-.258-.085.415.415 0 0 0-.259.085l-.001.001-.005.003-.015.013a8.471 8.471 0 0 0-.267.227 17.27 17.27 0 0 0-.695.641c-.546.532-1.217 1.258-1.694 2.017-.355.565-.616 1.17-.616 1.738 0 1.56 1.571 2.85 3.552 2.85 1.98 0 3.551-1.29 3.551-2.85 0-.568-.261-1.173-.616-1.738-.477-.759-1.148-1.485-1.694-2.017a17.264 17.264 0 0 0-.962-.868l-.015-.013-.005-.003s-.001-.001-.26.184Zm0 0-.259-.185.259.185Zm-.012.415.012-.01.011.01c.17.148.406.36.67.619.435.423.938.96 1.35 1.53H3.424c.413-.57.916-1.107 1.35-1.53.265-.258.501-.471.671-.62Zm-2.83 4.04c0-.408.173-.872.453-1.35h4.777c.28.478.453.942.453 1.35 0 1.29-1.291 2.309-2.841 2.309-1.55 0-2.842-1.019-2.842-2.309Z"/>
</svg>
