<svg xmlns="http://www.w3.org/2000/svg" width="16" height="16" fill="none" viewBox="0 0 16 16">
  <path fill="#212529" d="M8 7.5a.5.5 0 1 0 0 1 .5.5 0 0 0 0-1Z"/>
  <path fill="#212529" d="M8 16a.5.5 0 0 1-.5-.5v-1.293l-.646.647a.5.5 0 0 1-.708-.708L7.5 12.793v-1.51l-2.053-1.232-1.348.778-.495 1.85a.5.5 0 1 1-.966-.26l.236-.882-1.12.646a.5.5 0 0 1-.5-.866l1.12-.646-.883-.237a.5.5 0 1 1 .26-.966l1.848.495L5 9.155v-2.31l-1.4-.808-1.85.495a.5.5 0 0 1-.259-.966l.883-.237-1.12-.646a.5.5 0 1 1 .5-.866l1.12.646-.236-.883a.5.5 0 1 1 .966-.258l.495 1.849 1.348.778L7.5 4.717v-1.51L6.146 1.854a.5.5 0 1 1 .708-.708l.646.647V.5a.5.5 0 0 1 1 0v1.293l.646-.647a.5.5 0 1 1 .708.708L8.5 3.207v1.51l2.053 1.232L11.9 5.17l.495-1.85a.5.5 0 1 1 .966.26l-.236.882 1.12-.646a.5.5 0 0 1 .5.866l-1.12.646.883.237a.5.5 0 1 1-.26.966L12.4 6.036l-1.4.809v2.31l1.4.808 1.85-.495a.5.5 0 0 1 .258.966l-.882.237 1.12.646a.5.5 0 1 1-.5.866l-1.12-.646.236.883a.5.5 0 0 1-.966.258l-.495-1.849-1.348-.778L8.5 11.283v1.51l1.354 1.353a.5.5 0 0 1-.708.708l-.646-.647V15.5a.5.5 0 0 1-.5.5Zm2-6.783V6.783l-2-1.2-2 1.2v2.434l2 1.2 2-1.2Z"/>
</svg>
