<svg xmlns="http://www.w3.org/2000/svg" width="12" height="10" fill="none" viewBox="0 0 12 10">
  <path fill="#212529" d="M.128 7.308c.072-.14.28-.207.461-.151l1.248.38c.254.078.538.078.792 0l.72-.22a2.296 2.296 0 0 1 1.32 0l.72.22c.254.078.537.078.791 0l.721-.22a2.296 2.296 0 0 1 1.319 0l.72.22c.255.078.538.078.792 0l1.248-.38c.182-.056.389.012.462.15.073.14-.016.297-.198.352l-1.248.38a2.296 2.296 0 0 1-1.32 0l-.72-.219a1.378 1.378 0 0 0-.791 0l-.72.22a2.296 2.296 0 0 1-1.32 0l-.72-.22a1.378 1.378 0 0 0-.792 0l-.72.22a2.296 2.296 0 0 1-1.32 0L.326 7.66c-.182-.056-.27-.214-.197-.352Zm0 1.082c.072-.139.28-.206.461-.15l1.248.38c.254.077.538.077.792 0l.72-.22a2.296 2.296 0 0 1 1.32 0l.72.22c.254.077.537.077.791 0l.721-.22a2.296 2.296 0 0 1 1.319 0l.72.22c.255.077.538.077.792 0l1.248-.38c.182-.056.389.011.462.15.073.139-.016.296-.198.351l-1.248.38a2.296 2.296 0 0 1-1.32 0l-.72-.219a1.378 1.378 0 0 0-.791 0l-.72.22a2.296 2.296 0 0 1-1.32 0l-.72-.22a1.378 1.378 0 0 0-.792 0l-.72.22a2.296 2.296 0 0 1-1.32 0l-1.248-.38c-.182-.056-.27-.213-.197-.352Zm1.865-3.373c-.324.575-.706 1.135-1.308 1.517a.436.436 0 0 1-.5-.035c-.126-.115-.106-.285.045-.38.463-.295.791-.75 1.11-1.316.1-.177.2-.368.304-.565.215-.407.444-.843.717-1.248.415-.614.959-1.206 1.79-1.642.836-.438 1.93-.703 3.41-.703 1.038 0 1.784.216 2.258.572.475.357.634.822.581 1.246a1.47 1.47 0 0 1-.724 1.063c-.373.22-.857.298-1.352.146a1.329 1.329 0 0 0-.505 1.415c.15.544.653.968 1.517.968h1.776c.196 0 .355.122.355.271 0 .15-.159.27-.355.27H9.336c-1.267 0-2.007-.657-2.212-1.398-.165-.596.004-1.284.539-1.777l-.103-.039-.551.21a.456.456 0 0 1-.318 0l-.71-.27c-.175-.067-.247-.23-.159-.363.088-.134.301-.188.477-.121l.551.21.552-.21a.456.456 0 0 1 .317 0l.71.27a.396.396 0 0 1 .024.01c.313.143.576.106.788-.02a.951.951 0 0 0 .452-.687c.036-.286-.071-.582-.373-.808-.303-.228-.845-.417-1.76-.417-1.362 0-2.31.242-3.006.607-.7.367-1.176.874-1.561 1.444-.26.384-.465.776-.671 1.169-.107.203-.214.407-.329.61Z"/>
</svg>
