<svg xmlns="http://www.w3.org/2000/svg" width="12" height="10" fill="none" viewBox="0 0 12 10">
  <path fill="#212529" d="M5.856.645c.197 0 .356.12.356.27v.278c2.93.122 5.327 1.736 5.327 3.78 0 0 0 .27-.355.27-.106 0-.25-.078-.25-.078l-.003-.002a2.618 2.618 0 0 0-.411-.225 2.796 2.796 0 0 0-1.112-.235 2.795 2.795 0 0 0-1.523.46l-.002.002s-.145.079-.25.079c-.107 0-.251-.079-.251-.079l-.003-.002a.86.86 0 0 0-.096-.063 2.838 2.838 0 0 0-1.071-.374V7.95h-.356.356v.008l-.001.013a1.236 1.236 0 0 1-.026.192 1.343 1.343 0 0 1-.731.925c-.264.135-.601.215-1.018.215-.418 0-.754-.08-1.019-.215A1.343 1.343 0 0 1 2.66 7.97v-.02h.355-.355v-.271c0-.15.159-.27.355-.27.196 0 .355.12.355.27v.273l.002.024a.889.889 0 0 0 .138.393.77.77 0 0 0 .301.268c.136.069.332.124.625.124s.489-.055.624-.124a.77.77 0 0 0 .301-.268.889.889 0 0 0 .14-.417V4.726a2.838 2.838 0 0 0-1.07.374 1.721 1.721 0 0 0-.097.063l-.003.002s-.145.079-.25.079c-.106 0-.25-.079-.25-.079l-.004-.002a.86.86 0 0 0-.096-.063 2.795 2.795 0 0 0-1.426-.397 2.795 2.795 0 0 0-1.523.46l-.003.002s-.144.079-.25.079c-.355 0-.355-.27-.355-.27 0-2.045 2.397-3.66 5.327-3.78v-.28c0-.15.16-.27.355-.27Zm-1.01 1.149C2.833 2.064 1.3 3.124.957 4.42c.34-.134.8-.258 1.348-.258.572 0 1.05.135 1.394.276.01-.378.078-.825.244-1.276a3.48 3.48 0 0 1 .903-1.368ZM4.408 4.46c.347-.149.845-.3 1.448-.3s1.102.151 1.448.3a3.667 3.667 0 0 0-.218-1.153 2.897 2.897 0 0 0-1.23-1.517 2.897 2.897 0 0 0-1.23 1.517c-.15.409-.209.815-.218 1.153Zm2.46-2.667c.447.414.73.899.902 1.368.165.451.233.898.244 1.276a3.676 3.676 0 0 1 1.394-.276 3.68 3.68 0 0 1 1.348.258c-.345-1.296-1.877-2.356-3.889-2.626Z"/>
</svg>
