<svg xmlns="http://www.w3.org/2000/svg" width="13" height="10" fill="none" viewBox="0 0 13 10">
  <path fill="#212529" d="M.818 2.438c.073-.139.28-.206.462-.15l1.248.38c.254.077.537.077.791 0l.72-.22a2.296 2.296 0 0 1 1.32 0l.72.22c.255.077.538.077.792 0l.72-.22a2.296 2.296 0 0 1 1.32 0l.72.22c.254.077.537.077.791 0l1.249-.38c.182-.056.389.011.461.15.073.139-.015.296-.197.352l-1.249.38a2.296 2.296 0 0 1-1.319 0l-.72-.22a1.378 1.378 0 0 0-.792 0l-.72.22a2.296 2.296 0 0 1-1.32 0l-.72-.22a1.378 1.378 0 0 0-.791 0l-.72.22a2.296 2.296 0 0 1-1.32 0l-1.248-.38c-.182-.056-.27-.213-.198-.352Zm0 1.623c.073-.138.28-.206.462-.15l1.248.38c.254.077.537.077.791 0l.72-.22a2.296 2.296 0 0 1 1.32 0l.72.22c.255.077.538.077.792 0l.72-.22a2.296 2.296 0 0 1 1.32 0l.72.22c.254.077.537.077.791 0l1.249-.38c.182-.056.389.012.461.15.073.139-.015.296-.197.352l-1.249.38a2.296 2.296 0 0 1-1.319 0l-.72-.22a1.378 1.378 0 0 0-.792 0l-.72.22a2.296 2.296 0 0 1-1.32 0l-.72-.22a1.378 1.378 0 0 0-.791 0l-.72.22a2.296 2.296 0 0 1-1.32 0l-1.248-.38C.834 4.357.746 4.2.818 4.06Zm0 1.623c.073-.138.28-.206.462-.15l1.248.38c.254.077.537.077.791 0l.72-.22a2.296 2.296 0 0 1 1.32 0l.72.22c.255.077.538.077.792 0l.72-.22a2.296 2.296 0 0 1 1.32 0l.72.22c.254.077.537.077.791 0l1.249-.38c.182-.056.389.012.461.15.073.14-.015.297-.197.352l-1.249.38a2.296 2.296 0 0 1-1.319 0l-.72-.22a1.378 1.378 0 0 0-.792 0l-.72.22a2.296 2.296 0 0 1-1.32 0l-.72-.22a1.378 1.378 0 0 0-.791 0l-.72.22a2.296 2.296 0 0 1-1.32 0l-1.248-.38c-.182-.055-.27-.213-.198-.352Zm0 1.624c.073-.14.28-.207.462-.151l1.248.38c.254.078.537.078.791 0l.72-.22a2.296 2.296 0 0 1 1.32 0l.72.22c.255.078.538.078.792 0l.72-.22a2.296 2.296 0 0 1 1.32 0l.72.22c.254.078.537.078.791 0l1.249-.38c.182-.056.389.012.461.15.073.14-.015.297-.197.352l-1.249.38a2.296 2.296 0 0 1-1.319 0l-.72-.219a1.378 1.378 0 0 0-.792 0l-.72.22a2.296 2.296 0 0 1-1.32 0l-.72-.22a1.378 1.378 0 0 0-.791 0l-.72.22a2.296 2.296 0 0 1-1.32 0l-1.248-.38c-.182-.056-.27-.214-.198-.352Z"/>
</svg>
