<svg xmlns="http://www.w3.org/2000/svg" width="16" height="16" fill="none" viewBox="0 0 16 16">
  <path fill="#212529" d="M4.5 5a.5.5 0 1 0 0-1 .5.5 0 0 0 0 1ZM3 4.5a.5.5 0 1 1-1 0 .5.5 0 0 1 1 0Zm2 7a.5.5 0 1 1-1 0 .5.5 0 0 1 1 0Zm-2.5.5a.5.5 0 1 0 0-1 .5.5 0 0 0 0 1Z"/>
  <path fill="#212529" d="M2 2a2 2 0 0 0-2 2v1a2 2 0 0 0 2 2h1v2H2a2 2 0 0 0-2 2v1a2 2 0 0 0 2 2h12a2 2 0 0 0 2-2v-1a2 2 0 0 0-2-2h-1V7h1a2 2 0 0 0 2-2V4a2 2 0 0 0-2-2H2Zm13 2v1a1 1 0 0 1-1 1H2a1 1 0 0 1-1-1V4a1 1 0 0 1 1-1h12a1 1 0 0 1 1 1Zm0 7v1a1 1 0 0 1-1 1H2a1 1 0 0 1-1-1v-1a1 1 0 0 1 1-1h12a1 1 0 0 1 1 1Zm-3-4v2H4V7h8Z"/>
</svg>
