<svg xmlns="http://www.w3.org/2000/svg" width="17" height="13" fill="none" viewBox="0 0 17 13">
  <path fill="#212529" d="M8.136 1.68c1.857 0 3.526.64 4.65 1.793a4.977 4.977 0 0 1 2.518 1.09C14.044 1.914 11.431.43 8.136.43 4.886.43 2.256 1.91.98 4.552a4.979 4.979 0 0 1 2.29-1.047C4.371 2.303 6.11 1.68 8.135 1.68Z"/>
  <path fill="#212529" d="M12.136 12.431a3.988 3.988 0 0 1-2.786-1.13l-.002-.002a1.612 1.612 0 0 0-.276-.167 2.164 2.164 0 0 0-.936-.2 2.17 2.17 0 0 0-.935.2 1.612 1.612 0 0 0-.277.167l-.001.002a4 4 0 1 1-2.786-6.87h8a4 4 0 0 1 0 8Z"/>
</svg>
