<svg xmlns="http://www.w3.org/2000/svg" width="16" height="16" fill="none" viewBox="0 0 16 16">
  <path fill="#212529" d="M0 6a2 2 0 0 1 2-2h12a2 2 0 0 1 2 2v5a2 2 0 0 1-2 2H2a2 2 0 0 1-2-2V6Zm13 .25v.5c0 .138.112.25.25.25h.5a.25.25 0 0 0 .25-.25v-.5a.25.25 0 0 0-.25-.25h-.5a.25.25 0 0 0-.25.25ZM2.25 8a.25.25 0 0 0-.25.25v.5c0 .138.112.25.25.25h.5A.25.25 0 0 0 3 8.75v-.5A.25.25 0 0 0 2.75 8h-.5ZM4 8.25v.5c0 .138.112.25.25.25h.5A.25.25 0 0 0 5 8.75v-.5A.25.25 0 0 0 4.75 8h-.5a.25.25 0 0 0-.25.25ZM6.25 8a.25.25 0 0 0-.25.25v.5c0 .138.112.25.25.25h.5A.25.25 0 0 0 7 8.75v-.5A.25.25 0 0 0 6.75 8h-.5ZM8 8.25v.5c0 .138.112.25.25.25h.5A.25.25 0 0 0 9 8.75v-.5A.25.25 0 0 0 8.75 8h-.5a.25.25 0 0 0-.25.25ZM13.25 8a.25.25 0 0 0-.25.25v.5c0 .138.112.25.25.25h.5a.25.25 0 0 0 .25-.25v-.5a.25.25 0 0 0-.25-.25h-.5Zm0 2a.25.25 0 0 0-.25.25v.5c0 .138.112.25.25.25h.5a.25.25 0 0 0 .25-.25v-.5a.25.25 0 0 0-.25-.25h-.5Zm-3-2a.25.25 0 0 0-.25.25v.5c0 .138.112.25.25.25h1.5a.25.25 0 0 0 .25-.25v-.5a.25.25 0 0 0-.25-.25h-1.5Zm.75 2.25v.5c0 .138.112.25.25.25h.5a.25.25 0 0 0 .25-.25v-.5a.25.25 0 0 0-.25-.25h-.5a.25.25 0 0 0-.25.25ZM11.25 6a.25.25 0 0 0-.25.25v.5c0 .138.112.25.25.25h.5a.25.25 0 0 0 .25-.25v-.5a.25.25 0 0 0-.25-.25h-.5ZM9 6.25v.5c0 .138.112.25.25.25h.5a.25.25 0 0 0 .25-.25v-.5A.25.25 0 0 0 9.75 6h-.5a.25.25 0 0 0-.25.25ZM7.25 6a.25.25 0 0 0-.25.25v.5c0 .138.112.25.25.25h.5A.25.25 0 0 0 8 6.75v-.5A.25.25 0 0 0 7.75 6h-.5ZM5 6.25v.5c0 .138.112.25.25.25h.5A.25.25 0 0 0 6 6.75v-.5A.25.25 0 0 0 5.75 6h-.5a.25.25 0 0 0-.25.25ZM2.25 6a.25.25 0 0 0-.25.25v.5c0 .138.112.25.25.25h1.5A.25.25 0 0 0 4 6.75v-.5A.25.25 0 0 0 3.75 6h-1.5ZM2 10.25v.5c0 .138.112.25.25.25h.5a.25.25 0 0 0 .25-.25v-.5a.25.25 0 0 0-.25-.25h-.5a.25.25 0 0 0-.25.25ZM4.25 10a.25.25 0 0 0-.25.25v.5c0 .138.112.25.25.25h5.5a.25.25 0 0 0 .25-.25v-.5a.25.25 0 0 0-.25-.25h-5.5Z"/>
</svg>
