<svg xmlns="http://www.w3.org/2000/svg" width="17" height="17" fill="none" viewBox="0 0 17 17">
  <path fill="#212529" d="M3.1.482c-.167 0-.33.016-.488.047l.194.981a1.51 1.51 0 0 1 .293-.028h.458v-1H3.1Zm2.29 0h-.916v1h.917v-1Zm1.834 0h-.917v1h.917v-1Zm1.833 0h-.916v1h.916v-1Zm1.833 0h-.916v1h.917v-1Zm1.834 0h-.917v1h.917v-1Zm1.376 0h-.46v1h.46c.1 0 .198.01.292.028l.194-.98A2.51 2.51 0 0 0 14.1.481Zm2.078 1.11a2.51 2.51 0 0 0-.69-.69l-.556.832c.164.11.305.25.415.414l.83-.556ZM1.71.903a2.51 2.51 0 0 0-.69.69l.831.555c.11-.163.251-.304.415-.414L1.71.903ZM16.6 2.982c0-.167-.017-.33-.049-.488l-.98.194c.018.095.028.193.028.294v.458h1v-.458ZM.647 2.494a2.51 2.51 0 0 0-.048.488v.458h1v-.458c0-.101.01-.2.029-.294l-.981-.194ZM.6 4.357v.916h1v-.916h-1Zm16 .916v-.916h-1v.916h1ZM.6 6.19v.917h1V6.19h-1Zm16 .917V6.19h-1v.917h1Zm-16 .916v.917h1v-.917h-1Zm15 .917h1v-.917h-1v.917Zm-15 .917v.916h1v-.916h-1Zm16 .916v-.916h-1v.916h1Zm-16 .917v.917h1v-.917h-1Zm16 .917v-.917h-1v.917h1Zm-16 .916v.459c0 .166.015.329.047.487l.98-.194a1.51 1.51 0 0 1-.028-.293v-.459h-1Zm16 .459v-.459h-1v.459c0 .1-.01.198-.03.293l.982.194a2.61 2.61 0 0 0 .047-.487ZM1.02 15.37c.183.273.417.508.69.69l.556-.83a1.512 1.512 0 0 1-.415-.415l-.83.556Zm14.469.69a2.51 2.51 0 0 0 .689-.69l-.831-.555c-.11.163-.251.305-.415.414l.556.831Zm-12.877.374c.158.031.32.047.487.047h.458v-1H3.1c-.1 0-.199-.01-.293-.028l-.194.98Zm11.488.048c.165 0 .329-.017.486-.048l-.194-.981a1.509 1.509 0 0 1-.293.029h-.458v1h.458Zm-9.626 0h.917v-1h-.917v1Zm1.833 0h.917v-1h-.917v1Zm1.833 0h.917v-1h-.916v1Zm1.834 0h.917v-1h-.917v1Zm1.833 0h.917v-1h-.917v1ZM5.1 7.982a.5.5 0 1 0 0 1h7a.5.5 0 1 0 0-1h-7Z"/>
</svg>
