<svg xmlns="http://www.w3.org/2000/svg" width="17" height="17" fill="none" viewBox="0 0 17 17">
  <path fill="#212529" d="M8.6.25c-.177 0-.351.005-.524.016l.064.998a7.11 7.11 0 0 1 .918 0l.064-.998A8.113 8.113 0 0 0 8.6.25ZM7.038.402a7.955 7.955 0 0 0-1.011.27l.321.947c.287-.097.582-.176.884-.236L7.038.402Zm4.133.27a7.945 7.945 0 0 0-1.011-.27l-.194.98c.302.06.597.14.884.237l.322-.947Zm1.873.925a7.991 7.991 0 0 0-.905-.524l-.444.897c.275.135.54.289.793.458l.556-.83ZM5.06 1.073c-.314.155-.617.33-.906.524l.556.831a6.99 6.99 0 0 1 .793-.458l-.443-.897ZM3.324 2.235c-.262.23-.51.477-.74.74l.752.66a7.05 7.05 0 0 1 .648-.649l-.66-.751Zm11.29.74a8.045 8.045 0 0 0-.74-.74l-.66.751c.23.202.447.418.648.648l.752-.66Zm1.161 1.735a7.98 7.98 0 0 0-.524-.906l-.83.557c.169.253.322.517.458.792l.896-.443ZM1.947 3.804c-.194.29-.369.592-.524.906l.896.443c.136-.275.29-.54.459-.792l-.831-.557Zm-.925 1.873a7.944 7.944 0 0 0-.27 1.012l.98.194c.06-.302.14-.598.237-.885l-.947-.32Zm15.425 1.012a7.943 7.943 0 0 0-.27-1.012l-.947.321c.097.287.176.583.236.885l.98-.194ZM.616 7.726a8.113 8.113 0 0 0 0 1.047l.998-.065a7.11 7.11 0 0 1 0-.917l-.998-.065ZM16.6 8.25c0-.176-.007-.35-.018-.524l-.998.065a7.11 7.11 0 0 1 0 .917l.998.065c.011-.173.017-.348.017-.524ZM.751 9.81c.069.346.16.684.27 1.012l.948-.321a6.948 6.948 0 0 1-.237-.885l-.98.194Zm15.425 1.012a7.94 7.94 0 0 0 .27-1.012l-.98-.194c-.06.302-.14.598-.236.885l.946.32Zm-14.753.967c.155.314.33.617.524.906l.83-.557a6.987 6.987 0 0 1-.458-.792l-.896.443Zm13.828.906a7.98 7.98 0 0 0 .524-.906l-.896-.443c-.136.275-.29.54-.459.792l.831.557Zm-12.667.829c.23.263.478.51.74.74l.66-.751a7.049 7.049 0 0 1-.648-.648l-.752.66Zm11.29.74c.262-.23.51-.477.74-.74l-.752-.66c-.201.23-.418.447-.648.649l.66.751Zm-1.735 1.162c.314-.155.616-.33.905-.524l-.556-.831a6.92 6.92 0 0 1-.793.458l.444.897Zm-7.985-.524c.289.193.592.369.906.524l.443-.897a6.984 6.984 0 0 1-.793-.458l-.556.83Zm1.873.925c.328.111.666.202 1.011.27l.194-.98a6.937 6.937 0 0 1-.884-.237l-.321.947Zm4.133.27a7.943 7.943 0 0 0 1.011-.27l-.32-.947a6.933 6.933 0 0 1-.885.236l.194.981Zm-2.084.136a8.1 8.1 0 0 0 1.046 0l-.064-.998a7.11 7.11 0 0 1-.918 0l-.064.998ZM5.1 7.75a.5.5 0 0 0 0 1h7a.5.5 0 1 0 0-1h-7Z"/>
</svg>
