<svg xmlns="http://www.w3.org/2000/svg" width="17" height="17" fill="none" viewBox="0 0 17 17">
  <path fill="#212529" d="M3.409.482c-.167 0-.33.016-.488.047l.194.981a1.51 1.51 0 0 1 .294-.028h.458v-1h-.458Zm2.291 0h-.916v1H5.7v-1Zm1.834 0h-.917v1h.917v-1Zm1.833 0H8.45v1h.917v-1Zm1.833 0h-.916v1h.916v-1Zm1.834 0h-.917v1h.917v-1Zm1.375 0h-.459v1h.459c.1 0 .198.01.293.028l.194-.98a2.51 2.51 0 0 0-.487-.048Zm2.078 1.11a2.51 2.51 0 0 0-.689-.69l-.556.832c.163.11.305.25.414.414l.831-.556ZM2.02.903a2.51 2.51 0 0 0-.69.69l.831.555c.11-.163.25-.304.415-.414L2.019.903Zm14.889 2.079c0-.167-.017-.33-.048-.488l-.98.194c.018.095.028.193.028.294v.458h1v-.458ZM.956 2.494a2.51 2.51 0 0 0-.047.488v.458h1v-.458c0-.101.01-.2.028-.294l-.98-.194ZM.909 4.357v.916h1v-.916h-1Zm16 .916v-.916h-1v.916h1Zm-16 .917v.917h1V6.19h-1Zm16 .917V6.19h-1v.917h1Zm-16 .916v.917h1v-.917h-1Zm15 .917h1v-.917h-1v.917Zm-15 .917v.916h1v-.916h-1Zm16 .916v-.916h-1v.916h1Zm-16 .917v.917h1v-.917h-1Zm16 .917v-.917h-1v.917h1Zm-16 .916v.459c0 .166.016.329.047.487l.981-.194a1.51 1.51 0 0 1-.028-.293v-.459h-1Zm16 .459v-.459h-1v.459c0 .1-.01.198-.029.293l.981.194a2.53 2.53 0 0 0 .048-.487ZM1.33 15.37c.182.273.417.508.69.69l.556-.83a1.512 1.512 0 0 1-.415-.415l-.831.556Zm14.468.69a2.51 2.51 0 0 0 .69-.69l-.832-.555a1.51 1.51 0 0 1-.414.414l.556.831Zm-12.877.374c.158.031.321.047.488.047h.458v-1h-.458c-.101 0-.2-.01-.294-.028l-.194.98Zm11.488.048c.166 0 .329-.017.487-.048l-.194-.981a1.509 1.509 0 0 1-.293.029h-.459v1h.459Zm-9.625 0H5.7v-1h-.916v1Zm1.833 0h.917v-1h-.917v1Zm1.833-1v1h.917v-1H8.45Zm1.834 1h.916v-1h-.916v1Zm1.833 0h.917v-1h-.917v1Zm-2.708-11.5a.5.5 0 1 0-1 0v3h-3a.5.5 0 1 0 0 1h3v3a.5.5 0 0 0 1 0v-3h3a.5.5 0 1 0 0-1h-3v-3Z"/>
</svg>
