<svg xmlns="http://www.w3.org/2000/svg" width="17" height="17" fill="none" viewBox="0 0 17 17">
  <path fill="#212529" d="M8.909.25c-.176 0-.35.005-.524.016l.065.998a7.11 7.11 0 0 1 .917 0l.065-.998A8.113 8.113 0 0 0 8.909.25ZM7.348.402a7.926 7.926 0 0 0-1.012.27l.322.947c.286-.097.582-.176.884-.236L7.348.402Zm4.133.27a7.945 7.945 0 0 0-1.012-.27l-.194.98c.303.06.598.14.885.237l.321-.947Zm1.873.925a7.991 7.991 0 0 0-.906-.524l-.443.897c.275.135.54.289.793.458l.556-.83ZM5.37 1.073c-.315.155-.617.33-.907.524l.557.831a6.99 6.99 0 0 1 .792-.458l-.443-.897ZM3.634 2.235c-.263.23-.51.477-.74.74l.752.66c.201-.23.418-.447.647-.649l-.66-.751Zm11.289.74a8.045 8.045 0 0 0-.74-.74l-.66.751c.23.202.447.418.649.648l.751-.66Zm1.162 1.735a8.01 8.01 0 0 0-.524-.906l-.831.557c.17.253.323.517.458.792l.897-.443ZM2.256 3.804c-.193.29-.368.592-.524.906l.897.443c.136-.275.289-.54.458-.792l-.83-.557Zm-.925 1.873a7.945 7.945 0 0 0-.27 1.012l.98.194c.06-.302.14-.598.237-.885l-.947-.32Zm15.425 1.012a7.943 7.943 0 0 0-.27-1.012l-.947.321c.097.287.177.583.236.885l.981-.194ZM.925 7.726a8.113 8.113 0 0 0 0 1.047l.998-.065a7.117 7.117 0 0 1 0-.917l-.998-.065Zm15.984.524a8.1 8.1 0 0 0-.017-.524l-.998.065a7.11 7.11 0 0 1 0 .917l.998.065a8.1 8.1 0 0 0 .017-.524ZM1.06 9.81c.07.346.16.684.271 1.012l.947-.321a6.946 6.946 0 0 1-.236-.885l-.981.194Zm15.426 1.012a7.94 7.94 0 0 0 .27-1.012l-.98-.194a7.07 7.07 0 0 1-.237.885l.947.32Zm-14.754.967c.156.314.33.617.524.906l.831-.557a6.989 6.989 0 0 1-.458-.792l-.897.443Zm13.828.906a8.01 8.01 0 0 0 .525-.906l-.897-.443c-.135.275-.289.54-.458.792l.83.557Zm-12.666.829c.23.263.477.51.74.74l.66-.751a7.047 7.047 0 0 1-.648-.648l-.752.66Zm11.29.74c.262-.23.51-.477.74-.74l-.752-.66c-.202.23-.418.447-.648.649l.66.751Zm-1.736 1.162c.314-.155.617-.33.906-.524l-.556-.831c-.254.17-.518.322-.793.458l.443.897Zm-7.985-.524c.29.193.592.369.906.524l.443-.897a6.984 6.984 0 0 1-.792-.458l-.557.83Zm1.873.925c.328.111.666.202 1.012.27l.194-.98a6.937 6.937 0 0 1-.884-.237l-.322.947Zm4.134.27a7.943 7.943 0 0 0 1.011-.27l-.321-.947a6.933 6.933 0 0 1-.885.236l.194.981Zm-2.085.136a8.1 8.1 0 0 0 1.047 0l-.065-.998a7.11 7.11 0 0 1-.917 0l-.065.998ZM9.409 4.75a.5.5 0 0 0-1 0v3h-3a.5.5 0 0 0 0 1h3v3a.5.5 0 0 0 1 0v-3h3a.5.5 0 1 0 0-1h-3v-3Z"/>
</svg>
