<svg xmlns="http://www.w3.org/2000/svg" width="17" height="16" fill="none" viewBox="0 0 17 16">
  <path fill="#212529" d="M8.967 2.852a2 2 0 0 1 2.829 0l3.878 3.879a2 2 0 0 1 0 2.828l-5.5 5.5a2 2 0 0 1-1.414.586H6.003a2 2 0 0 1-1.415-.586l-2.5-2.5a2 2 0 0 1 0-2.828l6.88-6.88Zm2.121.707a1 1 0 0 0-1.414 0L5.042 8.192l5.293 5.293 4.632-4.633a1 1 0 0 0 0-1.414l-3.879-3.879Zm-1.46 10.633L4.333 8.899l-1.538 1.539a1 1 0 0 0 0 1.414l2.5 2.5a1 1 0 0 0 .707.293H8.76a1 1 0 0 0 .707-.293l.16-.16Z"/>
</svg>
