<svg xmlns="http://www.w3.org/2000/svg" width="17" height="17" fill="none" viewBox="0 0 17 17">
  <path fill="#212529" d="M4.57 7.185 4.133 8.47h-1.11l1.862-5H6.17l1.854 5H6.858l-.435-1.285H4.569Zm1.633-.737-.678-2.022h-.05l-.678 2.022h1.406Z"/>
  <path fill="#212529" d="M.025 2.47a2 2 0 0 1 2-2h7a2 2 0 0 1 2 2v3h3a2 2 0 0 1 2 2v7a2 2 0 0 1-2 2h-7a2 2 0 0 1-2-2v-3h-3a2 2 0 0 1-2-2v-7Zm2-1a1 1 0 0 0-1 1v7a1 1 0 0 0 1 1h7a1 1 0 0 0 1-1v-7a1 1 0 0 0-1-1h-7Zm7.137 9.996c.193.3.403.582.63.845-.747.575-1.672 1.001-2.767 1.293.177.216.45.635.554.866 1.125-.358 2.08-.844 2.886-1.494.777.665 1.74 1.165 2.93 1.472.134-.254.415-.673.63-.89-1.125-.253-2.058-.694-2.82-1.284.681-.747 1.221-1.651 1.62-2.757h1.2V8.47h-3v1l-.001.047h.766c-.318.844-.74 1.547-1.273 2.13a6.048 6.048 0 0 1-.415-.492 1.99 1.99 0 0 1-.94.31Z"/>
</svg>
