<svg xmlns="http://www.w3.org/2000/svg" width="16" height="16" fill="none" viewBox="0 0 16 16">
  <path fill="#212529" d="M0 .5A.5.5 0 0 1 .5 0h15a.5.5 0 0 1 .5.5v3a.5.5 0 0 1-.5.5H14v2h1.5a.5.5 0 0 1 .5.5v3a.5.5 0 0 1-.5.5H14v2h1.5a.5.5 0 0 1 .5.5v3a.5.5 0 0 1-.5.5H.5a.5.5 0 0 1-.5-.5v-3a.5.5 0 0 1 .5-.5H2v-2H.5a.5.5 0 0 1-.5-.5v-3A.5.5 0 0 1 .5 6H2V4H.5a.5.5 0 0 1-.5-.5v-3ZM3 4v2h4.5V4H3Zm5.5 0v2H13V4H8.5ZM3 10v2h4.5v-2H3Zm5.5 0v2H13v-2H8.5ZM1 1v2h3.5V1H1Zm4.5 0v2h5V1h-5Zm6 0v2H15V1h-3.5ZM1 7v2h3.5V7H1Zm4.5 0v2h5V7h-5Zm6 0v2H15V7h-3.5ZM1 13v2h3.5v-2H1Zm4.5 0v2h5v-2h-5Zm6 0v2H15v-2h-3.5Z"/>
</svg>
