<svg xmlns="http://www.w3.org/2000/svg" width="16" height="16" fill="none" viewBox="0 0 16 16">
  <path fill="#212529" d="M8 16A8 8 0 1 0 8 0a8 8 0 0 0 0 16Zm6.43-5.228a7.025 7.025 0 0 1-3.658 3.658l-1.115-2.788a4.015 4.015 0 0 0 1.985-1.985l2.788 1.115ZM5.228 14.43a7.025 7.025 0 0 1-3.658-3.658l2.788-1.115a4.015 4.015 0 0 0 1.985 1.985L5.228 14.43Zm9.202-9.202-2.788 1.115a4.015 4.015 0 0 0-1.985-1.985l1.115-2.788a7.025 7.025 0 0 1 3.658 3.658Zm-8.087-.87a4.015 4.015 0 0 0-1.985 1.985L1.57 5.228A7.025 7.025 0 0 1 5.228 1.57l1.115 2.788ZM8 11a3 3 0 1 1 0-6 3 3 0 0 1 0 6Z"/>
</svg>
