<svg xmlns="http://www.w3.org/2000/svg" width="15" height="17" fill="none" viewBox="0 0 15 17">
  <path fill="#212529" d="M5.866 12.696c.14-.082.293-.162.459-.238a7.878 7.878 0 0 1-.45.606c-.28.337-.498.516-.634.572a.255.255 0 0 1-.036.013.294.294 0 0 1-.026-.045c-.056-.11-.053-.216.04-.36.106-.165.32-.354.647-.548Zm2.455-1.646c-.118.024-.237.05-.356.077a21.008 21.008 0 0 0 .5-1.05 11.867 11.867 0 0 0 .51.858c-.217.032-.436.07-.654.114Zm2.525.939a3.874 3.874 0 0 1-.434-.41c.227.004.434.021.612.053.317.057.466.147.518.209a.095.095 0 0 1 .025.064.436.436 0 0 1-.059.2.307.307 0 0 1-.094.124.108.108 0 0 1-.07.015c-.09-.003-.258-.066-.498-.255ZM8.622 7.243a6.7 6.7 0 0 1-.2.828 4.865 4.865 0 0 1-.09-.346c-.076-.353-.086-.63-.046-.822.038-.177.11-.248.197-.283a.517.517 0 0 1 .145-.04c.012.03.028.092.032.198.004.122-.007.277-.038.465Z"/>
  <path fill="#212529" fill-rule="evenodd" d="M4.343.272h5.293a1 1 0 0 1 .707.293l3.707 3.707a1 1 0 0 1 .293.707v9.293a2 2 0 0 1-2 2h-8a2 2 0 0 1-2-2v-12a2 2 0 0 1 2-2Zm5.5 1.5v2a1 1 0 0 0 1 1h2l-3-3ZM4.508 13.94c.09.18.23.343.438.419.207.075.412.04.58-.03.319-.13.636-.436.926-.786.333-.401.684-.927 1.022-1.51a11.651 11.651 0 0 1 1.996-.406c.3.383.61.713.911.95.28.22.602.403.934.417a.856.856 0 0 0 .51-.138 1.04 1.04 0 0 0 .354-.416c.09-.181.144-.37.137-.563a.844.844 0 0 0-.2-.518c-.226-.27-.596-.4-.96-.465a5.753 5.753 0 0 0-1.334-.05 10.96 10.96 0 0 1-.98-1.686c.25-.66.437-1.284.52-1.794.036-.218.054-.426.047-.614a1.238 1.238 0 0 0-.127-.538.7.7 0 0 0-.476-.365c-.203-.043-.41 0-.602.077-.377.15-.576.47-.651.823-.073.34-.04.736.047 1.136.087.406.238.848.43 1.295a19.694 19.694 0 0 1-1.062 2.227 7.668 7.668 0 0 0-1.483.645c-.37.22-.698.48-.896.787-.21.326-.275.714-.08 1.103Z" clip-rule="evenodd"/>
</svg>
