<svg xmlns="http://www.w3.org/2000/svg" width="15" height="17" fill="none" viewBox="0 0 15 17">
  <path fill="#212529" d="M10.034 14.308a.5.5 0 0 0 .5.5h1a.5.5 0 0 0 .5-.5v-6a.5.5 0 0 0-.5-.5h-1a.5.5 0 0 0-.5.5v6Zm-2.5.5a.5.5 0 0 1-.5-.5v-4a.5.5 0 0 1 .5-.5h1a.5.5 0 0 1 .5.5v4a.5.5 0 0 1-.5.5h-1Zm-3 0a.5.5 0 0 1-.5-.5v-2a.5.5 0 0 1 .5-.5h1a.5.5 0 0 1 .5.5v2a.5.5 0 0 1-.5.5h-1Z"/>
  <path fill="#212529" d="M14.034 14.808v-9.5l-4.5-4.5h-5.5a2 2 0 0 0-2 2v12a2 2 0 0 0 2 2h8a2 2 0 0 0 2-2Zm-4.5-11a1.5 1.5 0 0 0 1.5 1.5h2v9.5a1 1 0 0 1-1 1h-8a1 1 0 0 1-1-1v-12a1 1 0 0 1 1-1h5.5v2Z"/>
</svg>
