<svg xmlns="http://www.w3.org/2000/svg" width="15" height="17" fill="none" viewBox="0 0 15 17">
  <path fill="#212529" d="M5.59 7.687a.5.5 0 1 0-.97.242l1.5 6a.5.5 0 0 0 .968.01l1.018-3.73 1.017 3.73a.5.5 0 0 0 .968-.01l1.5-6a.5.5 0 1 0-.97-.242L9.584 11.83l-.996-3.655a.5.5 0 0 0-.965 0l-.996 3.655L5.59 7.687Z"/>
  <path fill="#212529" d="M14.105 14.808v-9.5l-4.5-4.5h-5.5a2 2 0 0 0-2 2v12a2 2 0 0 0 2 2h8a2 2 0 0 0 2-2Zm-4.5-11a1.5 1.5 0 0 0 1.5 1.5h2v9.5a1 1 0 0 1-1 1h-8a1 1 0 0 1-1-1v-12a1 1 0 0 1 1-1h5.5v2Z"/>
</svg>
