<svg xmlns="http://www.w3.org/2000/svg" width="15" height="17" fill="none" viewBox="0 0 15 17">
  <path fill="#212529" d="M14.343 14.808v-9.5l-4.5-4.5h-5.5a2 2 0 0 0-2 2v12a2 2 0 0 0 2 2h8a2 2 0 0 0 2-2Zm-4.5-11a1.5 1.5 0 0 0 1.5 1.5h2v9.5a1 1 0 0 1-1 1h-8a1 1 0 0 1-1-1v-12a1 1 0 0 1 1-1h5.5v2Z"/>
  <path fill="#212529" d="M4.946 14.895a.81.81 0 0 1-.438-.42c-.194-.388-.13-.776.08-1.102.199-.307.526-.568.897-.787a7.68 7.68 0 0 1 1.482-.645A19.694 19.694 0 0 0 8.03 9.714 7.269 7.269 0 0 1 7.6 8.42c-.086-.4-.119-.796-.046-1.136.075-.354.274-.672.651-.823.192-.077.4-.12.602-.077a.7.7 0 0 1 .476.365c.089.164.12.356.127.538.007.188-.011.396-.047.614-.083.51-.27 1.134-.52 1.794a10.954 10.954 0 0 0 .98 1.686 5.762 5.762 0 0 1 1.335.05c.363.066.733.195.96.465.12.144.192.32.2.519.006.191-.048.38-.138.562-.085.169-.2.315-.355.416a.855.855 0 0 1-.51.138c-.33-.014-.653-.196-.933-.417a5.713 5.713 0 0 1-.91-.95 11.652 11.652 0 0 0-1.997.406 11.308 11.308 0 0 1-1.022 1.51c-.29.35-.607.656-.926.787a.793.793 0 0 1-.58.029Zm1.379-1.901c-.166.076-.32.156-.459.238-.328.194-.54.383-.647.547-.093.145-.096.25-.04.361.01.022.02.036.026.044a.265.265 0 0 0 .036-.012c.136-.056.355-.235.634-.572a8.18 8.18 0 0 0 .45-.606Zm1.64-1.33a12.71 12.71 0 0 1 1.01-.193 11.652 11.652 0 0 1-.51-.858 20.981 20.981 0 0 1-.5 1.05Zm2.447.45c.15.162.295.3.434.41.24.19.408.253.499.256a.107.107 0 0 0 .069-.015.307.307 0 0 0 .094-.125.437.437 0 0 0 .059-.2.095.095 0 0 0-.025-.063c-.052-.062-.201-.152-.518-.209a3.877 3.877 0 0 0-.612-.053Zm-1.99-3.507a6.7 6.7 0 0 0 .2-.828 2.52 2.52 0 0 0 .038-.465.614.614 0 0 0-.032-.198.518.518 0 0 0-.145.04c-.087.035-.159.106-.197.283-.04.192-.03.469.047.822.024.111.054.227.089.346Z"/>
</svg>
