<svg xmlns="http://www.w3.org/2000/svg" width="15" height="17" fill="none" viewBox="0 0 15 17">
  <path fill="#212529" d="M4.534 12.88a.5.5 0 0 1-.5-.5v-2a.5.5 0 0 1 .5-.5h1a.5.5 0 0 1 .5.5v2a.5.5 0 0 1-.5.5h-1Zm3 0a.5.5 0 0 1-.5-.5v-4a.5.5 0 0 1 .5-.5h1a.5.5 0 0 1 .5.5v4a.5.5 0 0 1-.5.5h-1Zm3 0a.5.5 0 0 1-.5-.5v-6a.5.5 0 0 1 .5-.5h1a.5.5 0 0 1 .5.5v6a.5.5 0 0 1-.5.5h-1Z"/>
  <path fill="#212529" d="M4.034.88a2 2 0 0 0-2 2v12a2 2 0 0 0 2 2h8a2 2 0 0 0 2-2v-12a2 2 0 0 0-2-2h-8Zm0 1h8a1 1 0 0 1 1 1v12a1 1 0 0 1-1 1h-8a1 1 0 0 1-1-1v-12a1 1 0 0 1 1-1Z"/>
</svg>
