<svg xmlns="http://www.w3.org/2000/svg" width="15" height="17" fill="none" viewBox="0 0 15 17">
  <path fill="#212529" d="M4.984 5.395a.5.5 0 0 1 .607.364l1.036 4.143.996-3.654a.5.5 0 0 1 .965 0l.997 3.654L10.62 5.76a.5.5 0 1 1 .97.242l-1.5 6a.5.5 0 0 1-.967.01l-1.017-3.73-1.018 3.73a.5.5 0 0 1-.968-.01l-1.5-6a.5.5 0 0 1 .364-.606Z"/>
  <path fill="#212529" d="M4.106.88a2 2 0 0 0-2 2v12a2 2 0 0 0 2 2h8a2 2 0 0 0 2-2v-12a2 2 0 0 0-2-2h-8Zm0 1h8a1 1 0 0 1 1 1v12a1 1 0 0 1-1 1h-8a1 1 0 0 1-1-1v-12a1 1 0 0 1 1-1Z"/>
</svg>
