<svg xmlns="http://www.w3.org/2000/svg" width="15" height="17" fill="none" viewBox="0 0 15 17">
  <path fill="#212529" d="M5.595 5.496a.5.5 0 0 1 .704.064l2.116 2.539 2.116-2.54a.5.5 0 1 1 .768.641L9.066 8.88l2.233 2.68a.5.5 0 0 1-.768.64L8.415 9.66 6.299 12.2a.5.5 0 0 1-.768-.64l2.233-2.68L5.531 6.2a.5.5 0 0 1 .064-.704Z"/>
  <path fill="#212529" d="M4.415.88a2 2 0 0 0-2 2v12a2 2 0 0 0 2 2h8a2 2 0 0 0 2-2v-12a2 2 0 0 0-2-2h-8Zm0 1h8a1 1 0 0 1 1 1v12a1 1 0 0 1-1 1h-8a1 1 0 0 1-1-1v-12a1 1 0 0 1 1-1Z"/>
</svg>
