<svg xmlns="http://www.w3.org/2000/svg" width="15" height="17" fill="none" viewBox="0 0 15 17">
  <path fill="#212529" d="M6.3 7.488a.5.5 0 0 0-.77.64l2.234 2.68-2.233 2.68a.5.5 0 1 0 .768.64l2.116-2.539 2.116 2.54a.5.5 0 1 0 .768-.641l-2.233-2.68 2.233-2.68a.5.5 0 0 0-.768-.64l-2.116 2.539-2.116-2.54Z"/>
  <path fill="#212529" d="M14.415 14.808v-9.5l-4.5-4.5h-5.5a2 2 0 0 0-2 2v12a2 2 0 0 0 2 2h8a2 2 0 0 0 2-2Zm-4.5-11a1.5 1.5 0 0 0 1.5 1.5h2v9.5a1 1 0 0 1-1 1h-8a1 1 0 0 1-1-1v-12a1 1 0 0 1 1-1h5.5v2Z"/>
</svg>
