<svg xmlns="http://www.w3.org/2000/svg" width="13" height="10" fill="none" viewBox="0 0 13 10">
  <path fill="#212529" fill-rule="evenodd" d="M6.868 8.736v-7h1v6.117L9.61 6.807a.5.5 0 0 1 .515 0l1.743 1.046V1.736h1v7a.5.5 0 0 1-.758.429L9.868 7.819 7.625 9.165a.5.5 0 0 1-.757-.429Z" clip-rule="evenodd"/>
  <path fill="#212529" d="M2.999.736h7.103c.784 0 1.42.485 1.42 1.082v6.493c0 .598-.636 1.082-1.42 1.082H2.999c-.785 0-1.421-.484-1.421-1.082V7.77h.71v.541c0 .299.318.541.71.541h7.104c.392 0 .71-.242.71-.54V1.817c0-.299-.318-.54-.71-.54H2.999c-.393 0-.71.241-.71.54v.541h-.711v-.54c0-.598.636-1.083 1.42-1.083Z"/>
  <path fill="#212529" d="M1.578 3.441v-.27c0-.15.159-.27.355-.27.196 0 .355.12.355.27v.27h.355c.197 0 .356.122.356.271 0 .15-.16.27-.356.27h-1.42c-.196 0-.355-.12-.355-.27 0-.15.159-.27.355-.27h.355Zm0 1.624v-.27c0-.15.159-.271.355-.271.196 0 .355.12.355.27v.27h.355c.197 0 .356.122.356.271 0 .15-.16.27-.356.27h-1.42c-.196 0-.355-.12-.355-.27 0-.15.159-.27.355-.27h.355Zm0 1.623v-.27c0-.15.159-.271.355-.271.196 0 .355.12.355.27v.27h.355c.197 0 .356.122.356.271 0 .15-.16.271-.356.271h-1.42c-.196 0-.355-.121-.355-.27 0-.15.159-.271.355-.271h.355Z"/>
</svg>
