<svg xmlns="http://www.w3.org/2000/svg" width="13" height="10" fill="none" viewBox="0 0 13 10">
  <path fill="#212529" fill-rule="evenodd" d="M6.177 1.736h6v7a.5.5 0 0 1-.757.429L9.177 7.819 6.934 9.165a.5.5 0 0 1-.757-.429v-7Z" clip-rule="evenodd"/>
  <path fill="#212529" d="M2.308.736h7.103c.785 0 1.42.485 1.42 1.082v6.493c0 .598-.635 1.082-1.42 1.082H2.308c-.785 0-1.42-.484-1.42-1.082V7.77h.71v.541c0 .299.318.541.71.541h7.103c.393 0 .71-.242.71-.54V1.817c0-.299-.317-.54-.71-.54H2.308c-.392 0-.71.241-.71.54v.541h-.71v-.54c0-.598.635-1.083 1.42-1.083Z"/>
  <path fill="#212529" d="M.887 3.441v-.27c0-.15.16-.27.356-.27.196 0 .355.12.355.27v.27h.355c.196 0 .355.122.355.271 0 .15-.159.27-.355.27H.533c-.197 0-.356-.12-.356-.27 0-.15.16-.27.355-.27h.355Zm0 1.624v-.27c0-.15.16-.271.356-.271.196 0 .355.12.355.27v.27h.355c.196 0 .355.122.355.271 0 .15-.159.27-.355.27H.533c-.197 0-.356-.12-.356-.27 0-.15.16-.27.355-.27h.355Zm0 1.623v-.27c0-.15.16-.271.356-.271.196 0 .355.12.355.27v.27h.355c.196 0 .355.122.355.271 0 .15-.159.271-.355.271H.533c-.197 0-.356-.121-.356-.27 0-.15.16-.271.355-.271h.355Z"/>
</svg>
