<svg xmlns="http://www.w3.org/2000/svg" width="16" height="16" fill="none" viewBox="0 0 16 16">
  <path fill="#212529" fill-rule="evenodd" d="M8 4a.5.5 0 0 1 .5.5v.634l.549-.317a.5.5 0 1 1 .5.866L9 6l.549.317a.5.5 0 1 1-.5.866L8.5 6.866V7.5a.5.5 0 0 1-1 0v-.634l-.549.317a.5.5 0 1 1-.5-.866L7 6l-.549-.317a.5.5 0 0 1 .5-.866l.549.317V4.5A.5.5 0 0 1 8 4ZM5 9.5a.5.5 0 0 1 .5-.5h5a.5.5 0 0 1 0 1h-5a.5.5 0 0 1-.5-.5Zm0 2a.5.5 0 0 1 .5-.5h5a.5.5 0 0 1 0 1h-5a.5.5 0 0 1-.5-.5Z" clip-rule="evenodd"/>
  <path fill="#212529" d="M3 0h10a2 2 0 0 1 2 2v12a2 2 0 0 1-2 2H3a2 2 0 0 1-2-2v-1h1v1a1 1 0 0 0 1 1h10a1 1 0 0 0 1-1V2a1 1 0 0 0-1-1H3a1 1 0 0 0-1 1v1H1V2a2 2 0 0 1 2-2Z"/>
  <path fill="#212529" d="M1 5v-.5a.5.5 0 0 1 1 0V5h.5a.5.5 0 0 1 0 1h-2a.5.5 0 0 1 0-1H1Zm0 3v-.5a.5.5 0 0 1 1 0V8h.5a.5.5 0 0 1 0 1h-2a.5.5 0 0 1 0-1H1Zm0 3v-.5a.5.5 0 0 1 1 0v.5h.5a.5.5 0 0 1 0 1h-2a.5.5 0 0 1 0-1H1Z"/>
</svg>
