<svg xmlns="http://www.w3.org/2000/svg" width="13" height="9" fill="none" viewBox="0 0 13 9">
  <path fill="#212529" fill-rule="evenodd" d="M8.574 4.066c.139.106.139.277 0 .382L6.443 6.072a.418.418 0 0 1-.251.079.418.418 0 0 1-.251-.08l-1.066-.81c-.139-.107-.139-.278 0-.384a.438.438 0 0 1 .502 0l.815.62 1.88-1.431a.438.438 0 0 1 .502 0Z" clip-rule="evenodd"/>
  <path fill="#212529" d="M3.706 1.01h-.71c-.785 0-1.421.485-1.421 1.083v5.681c0 .598.636 1.082 1.42 1.082h7.103c.785 0 1.421-.484 1.421-1.082V2.093c0-.598-.636-1.082-1.42-1.082h-.71v.54h.71c.392 0 .71.243.71.542v5.681c0 .299-.318.541-.71.541H2.994c-.392 0-.71-.242-.71-.54V2.092c0-.299.318-.541.71-.541h.71V1.01Z"/>
  <path fill="#212529" d="M7.612.74c.197 0 .356.121.356.27v.542c0 .15-.16.27-.356.27h-2.13c-.197 0-.356-.12-.356-.27V1.01c0-.15.16-.27.355-.27h2.131ZM5.482.2c-.589 0-1.066.363-1.066.81v.542c0 .448.477.811 1.065.811h2.131c.589 0 1.066-.363 1.066-.811V1.01c0-.448-.477-.812-1.066-.812h-2.13Z"/>
</svg>
