<svg xmlns="http://www.w3.org/2000/svg" width="12" height="9" fill="none" viewBox="0 0 12 9">
  <path fill="#212529" fill-rule="evenodd" d="M4.462 5.34c0-.15.159-.271.355-.271h2.841c.196 0 .355.12.355.27 0 .15-.159.27-.355.27H4.817c-.196 0-.355-.12-.355-.27Z" clip-rule="evenodd"/>
  <path fill="#212529" d="M3.396 1.01h-.71c-.785 0-1.42.485-1.42 1.083v5.681c0 .598.635 1.082 1.42 1.082h7.103c.785 0 1.42-.484 1.42-1.082V2.093c0-.598-.635-1.082-1.42-1.082h-.71v.54h.71c.392 0 .71.243.71.542v5.681c0 .299-.318.541-.71.541H2.686c-.392 0-.71-.242-.71-.54V2.092c0-.299.318-.541.71-.541h.71V1.01Z"/>
  <path fill="#212529" d="M7.303.74c.196 0 .355.121.355.27v.542c0 .15-.159.27-.355.27H5.172c-.196 0-.355-.12-.355-.27V1.01c0-.15.159-.27.355-.27h2.13ZM5.172.2c-.588 0-1.065.363-1.065.81v.542c0 .448.477.811 1.065.811h2.13c.59 0 1.066-.363 1.066-.811V1.01c0-.448-.477-.812-1.065-.812H5.172Z"/>
</svg>
