<svg xmlns="http://www.w3.org/2000/svg" width="13" height="9" fill="none" viewBox="0 0 13 9">
  <path fill="#212529" d="M3.777 6.15c0-.298.318-.54.71-.54.393 0 .71.242.71.54v.542c0 .299-.317.541-.71.541-.392 0-.71-.242-.71-.541v-.541ZM8.04 3.987c0-.3.317-.541.71-.541.392 0 .71.242.71.54v2.706c0 .299-.318.541-.71.541-.393 0-.711-.242-.711-.541V3.987ZM5.908 5.069c0-.3.318-.541.71-.541.393 0 .71.242.71.54v1.624c0 .299-.317.541-.71.541-.392 0-.71-.242-.71-.541V5.069Z"/>
  <path fill="#212529" d="M3.777 1.01h-.71c-.785 0-1.42.485-1.42 1.083v5.681c0 .598.635 1.082 1.42 1.082h7.103c.785 0 1.42-.484 1.42-1.082V2.093c0-.598-.635-1.082-1.42-1.082h-.71v.54h.71c.392 0 .71.243.71.542v5.681c0 .299-.318.541-.71.541H3.067c-.392 0-.71-.242-.71-.54V2.092c0-.299.318-.541.71-.541h.71V1.01Z"/>
  <path fill="#212529" d="M7.684.74c.196 0 .355.121.355.27v.542c0 .15-.159.27-.355.27H5.553c-.196 0-.355-.12-.355-.27V1.01c0-.15.159-.27.355-.27h2.13ZM5.553.2c-.588 0-1.066.363-1.066.81v.542c0 .448.478.811 1.066.811h2.13c.59 0 1.066-.363 1.066-.811V1.01c0-.448-.477-.812-1.065-.812H5.553Z"/>
</svg>
