<svg xmlns="http://www.w3.org/2000/svg" width="16" height="16" fill="none" viewBox="0 0 16 16">
  <path fill="#212529" d="M3.5 3a.5.5 0 0 0 0 1h5a.5.5 0 0 0 0-1h-5Zm0 3a.5.5 0 0 0 0 1h5a.5.5 0 0 0 0-1h-5ZM3 9.5a.5.5 0 0 1 .5-.5h5a.5.5 0 0 1 0 1h-5a.5.5 0 0 1-.5-.5Zm.5 2.5a.5.5 0 0 0 0 1h5a.5.5 0 0 0 0-1h-5Z"/>
  <path fill="#212529" d="M0 2a2 2 0 0 1 2-2h12a2 2 0 0 1 2 2v12a2 2 0 0 1-2 2H2a2 2 0 0 1-2-2V2Zm12-1v14h2a1 1 0 0 0 1-1V2a1 1 0 0 0-1-1h-2Zm-1 0H2a1 1 0 0 0-1 1v12a1 1 0 0 0 1 1h9V1Z"/>
</svg>
