<svg xmlns="http://www.w3.org/2000/svg" width="16" height="16" fill="none" viewBox="0 0 16 16">
  <path fill="#212529" d="M12.5 3a.5.5 0 0 1 0 1h-5a.5.5 0 0 1 0-1h5Zm0 3a.5.5 0 0 1 0 1h-5a.5.5 0 0 1 0-1h5Zm.5 3.5a.5.5 0 0 0-.5-.5h-5a.5.5 0 0 0 0 1h5a.5.5 0 0 0 .5-.5Zm-.5 2.5a.5.5 0 0 1 0 1h-5a.5.5 0 0 1 0-1h5Z"/>
  <path fill="#212529" d="M16 2a2 2 0 0 0-2-2H2a2 2 0 0 0-2 2v12a2 2 0 0 0 2 2h12a2 2 0 0 0 2-2V2ZM4 1v14H2a1 1 0 0 1-1-1V2a1 1 0 0 1 1-1h2Zm1 0h9a1 1 0 0 1 1 1v12a1 1 0 0 1-1 1H5V1Z"/>
</svg>
